<?xml version="1.0" encoding="utf-8"?>
<!-- Generator: Adobe Illustrator 24.3.0, SVG Export Plug-In . SVG Version: 6.00 Build 0)  -->
<svg version="1.1" xmlns="http://www.w3.org/2000/svg" xmlns:xlink="http://www.w3.org/1999/xlink" x="0px" y="0px" width="560px"
	 height="600px" viewBox="0 0 560 600" style="enable-background:new 0 0 560 600;" xml:space="preserve">
<style type="text/css">
	.st0{display:none;}
	.st1{display:inline;fill:#021018;}
	.st2{fill:none;stroke:#FAD040;stroke-width:2;stroke-linecap:round;stroke-linejoin:round;}
	.st3{fill:none;stroke:#FAD040;stroke-width:2;stroke-linecap:round;stroke-linejoin:round;stroke-dasharray:0,5.03362;}
	.st4{fill:#021019;}
	.st5{fill:none;stroke:#FAD040;stroke-width:1.96;stroke-linecap:round;stroke-linejoin:round;}
	.st6{fill:none;stroke:#FAD040;stroke-width:1.96;stroke-linecap:round;stroke-linejoin:round;stroke-dasharray:0,4.93295;}
	.st7{opacity:0.15;fill:#FFFFFF;}
	
		.st8{fill:none;stroke:#FAD040;stroke-width:2;stroke-linecap:round;stroke-linejoin:round;stroke-miterlimit:10;stroke-dasharray:0,5;}
	.st9{fill:#021019;stroke:#021019;stroke-width:0.50344;stroke-miterlimit:10;}
	.st10{opacity:0.69;fill:#021019;stroke:#021019;stroke-width:0.50344;stroke-miterlimit:10;}
	.st11{fill:none;stroke:#FFFFFF;stroke-linecap:round;stroke-linejoin:round;stroke-miterlimit:10;}
	.st12{fill:none;stroke:#F18740;stroke-linecap:round;stroke-linejoin:round;stroke-miterlimit:10;}
	.st13{fill:none;stroke:#FFFFFF;stroke-width:0.94409;stroke-linecap:round;stroke-linejoin:round;stroke-miterlimit:10;}
	
		.st14{fill:none;stroke:#FAD040;stroke-width:1.96;stroke-linecap:round;stroke-linejoin:round;stroke-miterlimit:10;stroke-dasharray:0,4.9;}
	.st15{fill:#021019;stroke:#021019;stroke-width:0.49337;stroke-miterlimit:10;}
	.st16{opacity:0.69;fill:#021019;stroke:#021019;stroke-width:0.49337;stroke-miterlimit:10;}
	.st17{fill:none;stroke:#FFFFFF;stroke-width:0.98;stroke-linecap:round;stroke-linejoin:round;stroke-miterlimit:10;}
	.st18{fill:none;stroke:#F18740;stroke-width:0.98;stroke-linecap:round;stroke-linejoin:round;stroke-miterlimit:10;}
	.st19{fill:none;stroke:#FFFFFF;stroke-width:0.92521;stroke-linecap:round;stroke-linejoin:round;stroke-miterlimit:10;}
	.st20{fill:none;stroke:#FFFFFF;stroke-width:3;stroke-linecap:round;stroke-linejoin:round;stroke-miterlimit:10;}
	.st21{fill:#3F8CED;stroke:#021019;stroke-width:2;stroke-miterlimit:10;}
	.st22{fill:#CFD5F3;stroke:#021019;stroke-width:2;stroke-miterlimit:10;}
	.st23{fill:#F18740;stroke:#021019;stroke-width:2;stroke-miterlimit:10;}
	.st24{fill:#3F8CED;stroke:#021019;stroke-width:1.66637;stroke-miterlimit:10;}
	.st25{fill:#CFD5F3;stroke:#021019;stroke-width:1.66637;stroke-miterlimit:10;}
	.st26{fill:#F18740;}
	.st27{fill:#FAD040;stroke:#021019;stroke-width:1.66637;stroke-miterlimit:10;}
	.st28{fill:#FAD040;stroke:#021019;stroke-width:2;stroke-miterlimit:10;}
	.st29{fill:none;stroke:#3F8CED;stroke-miterlimit:10;}
	.st30{fill:none;stroke:#F18740;stroke-miterlimit:10;}
	.st31{fill:none;stroke:#FAD040;stroke-miterlimit:10;}
	.st32{fill:none;stroke:#CFD5F3;stroke-miterlimit:10;}
	.st33{fill:none;stroke:#F18740;stroke-width:4;stroke-miterlimit:10;}
	.st34{fill:#B6662F;}
	.st35{fill:#F8BEB1;}
	.st36{opacity:0.4;fill:#FACDFF;}
	.st37{fill:none;stroke:#F384FF;stroke-width:0.5;stroke-linecap:round;stroke-linejoin:round;stroke-miterlimit:10;}
	.st38{fill:none;stroke:#F384FF;stroke-linecap:round;stroke-linejoin:round;stroke-miterlimit:10;}
	.st39{fill:none;stroke:#F384FF;stroke-width:0.49;stroke-linecap:round;stroke-linejoin:round;stroke-miterlimit:10;}
	.st40{fill:none;stroke:#F384FF;stroke-width:0.98;stroke-linecap:round;stroke-linejoin:round;stroke-miterlimit:10;}
	.st41{fill:none;stroke:#021019;stroke-width:10;stroke-miterlimit:10;}
	.st42{fill:none;stroke:#FAD040;stroke-width:2;stroke-linecap:round;stroke-linejoin:round;stroke-dasharray:0,4.9911;}
	.st43{fill:none;stroke:#FAD040;stroke-width:2;stroke-linecap:round;stroke-linejoin:round;stroke-dasharray:0,4.96555;}
	.st44{opacity:0.2;}
	.st45{fill:#FAD040;}
	.st46{opacity:0.15;}
	.st47{opacity:0.3;}
	.st48{opacity:0.4;}
	.st49{opacity:0.5;}
	.st50{fill:none;stroke:#021019;stroke-width:9.8;stroke-miterlimit:10;}
	.st51{fill:none;stroke:#FAD040;stroke-width:1.96;stroke-linecap:round;stroke-linejoin:round;stroke-dasharray:0,4.89127;}
	.st52{fill:none;stroke:#FAD040;stroke-width:1.96;stroke-linecap:round;stroke-linejoin:round;stroke-dasharray:0,4.86624;}
	.st53{fill:#2A2E34;stroke:#021019;stroke-width:0.50344;stroke-miterlimit:10;}
	.st54{fill:#3C3D43;}
	.st55{opacity:0.15;fill:none;stroke:#FFFFFF;stroke-miterlimit:10;}
	.st56{fill:#2A2E34;stroke:#021019;stroke-width:0.49337;stroke-miterlimit:10;}
	.st57{opacity:0.15;fill:none;stroke:#FFFFFF;stroke-width:0.98;stroke-miterlimit:10;}
	.st58{clip-path:url(#SVGID_2_);}
	.st59{clip-path:url(#SVGID_4_);}
	.st60{clip-path:url(#SVGID_6_);}
	.st61{clip-path:url(#SVGID_8_);}
	.st62{fill:#021018;}
	.st63{fill:#257CEA;}
	.st64{fill:#1765C5;}
	.st65{opacity:0.5;fill:#FFFFFF;}
	.st66{fill:#D56D17;}
	.st67{fill:#4AB1E4;}
	.st68{fill:#338FB5;}
	.st69{fill:#EE6836;}
	.st70{fill:#B1592F;}
	.st71{fill:#C5411C;}
	.st72{fill:#9A3B25;}
	.st73{fill:#79DA4D;}
	.st74{fill:#67AB4C;}
	.st75{fill:#00944B;}
	.st76{fill:#08773E;}
	.st77{fill:none;stroke:#F18740;stroke-width:4.2;stroke-miterlimit:10;}
	.st78{fill:none;stroke:#B6662F;stroke-miterlimit:10;}
	.st79{fill:#CFD5F3;}
	.st80{fill:#9EA6CD;}
	.st81{fill:#707272;}
	.st82{fill:#565A5A;}
	.st83{fill:#AE532B;}
	.st84{fill:#963018;}
	.st85{fill:#5CA735;}
	.st86{fill:#007136;}
	.st87{fill:#9DC4F6;}
	.st88{fill:none;stroke:#F18740;stroke-width:4.54494;stroke-miterlimit:10;}
	.st89{fill:none;stroke:#F18740;stroke-width:1.08213;stroke-miterlimit:10;}
	.st90{fill:none;stroke:#B6662F;stroke-width:1.08213;stroke-miterlimit:10;}
	.st91{fill:#374248;}
	.st92{fill:none;stroke:#F18740;stroke-width:3.60206;stroke-miterlimit:10;}
	.st93{fill:#FFFFFF;}
	.st94{fill:#A3AACF;}
	.st95{opacity:0.8;fill:#FFFFFF;}
	.st96{fill:#E0B02D;}
	.st97{opacity:0.7;fill:#FFFFFF;}
	.st98{fill:none;stroke:#F18740;stroke-width:0.54785;stroke-linecap:round;stroke-linejoin:round;stroke-miterlimit:10;}
	.st99{fill:none;stroke:#B6662F;stroke-width:0.54785;stroke-linecap:round;stroke-linejoin:round;stroke-miterlimit:10;}
	.st100{fill:none;stroke:#B6662F;stroke-width:0.54785;stroke-linecap:square;stroke-miterlimit:10;}
	.st101{fill:none;stroke:#B6662F;stroke-width:0.54785;stroke-linejoin:round;stroke-miterlimit:10;}
	.st102{fill:#0075BD;}
	.st103{fill:#035E98;}
	.st104{fill:#2587B0;}
	.st105{opacity:0.5;fill:none;stroke:#FFFFFF;stroke-width:0.7;stroke-miterlimit:10;}
	.st106{fill:none;stroke:#F18740;stroke-width:0.5369;stroke-linecap:round;stroke-linejoin:round;stroke-miterlimit:10;}
	.st107{fill:none;stroke:#B6662F;stroke-width:0.5369;stroke-linecap:square;stroke-miterlimit:10;}
	.st108{fill:none;stroke:#B6662F;stroke-width:0.5369;stroke-linejoin:round;stroke-miterlimit:10;}
	.st109{opacity:0.5;fill:none;stroke:#FFFFFF;stroke-width:0.686;stroke-miterlimit:10;}
	.st110{opacity:0.63;}
	.st111{fill:none;stroke:#A9A9A9;stroke-width:1.5;stroke-miterlimit:10;stroke-dasharray:2,3;}
	.st112{fill:none;stroke:#FFFFFF;stroke-miterlimit:10;}
	.st113{opacity:0.4;fill:none;stroke:#FFFFFF;stroke-miterlimit:10;}
	.st114{opacity:0.92;fill:none;stroke:#F384FF;stroke-miterlimit:10;}
	.st115{fill:none;}
	.st116{fill:#92989C;}
	.st117{opacity:0.45;fill:#20262D;}
	.st118{fill:#3F8CED;}
	.st119{fill:#F384FF;}
	.st120{opacity:0.6;}
	.st121{fill:#9A9A9A;}
	.st122{fill:#EE5836;}
	.st123{fill:none;stroke:#707272;stroke-miterlimit:10;}
	.st124{fill:none;stroke:#F18740;stroke-width:1.08149;stroke-miterlimit:10;}
	.st125{fill:#FF541C;}
	.st126{opacity:0.8;}
	.st127{opacity:0.9;}
	.st128{fill:#939595;}
	.st129{opacity:0.3;fill:#4AB1E4;}
	.st130{fill:none;stroke:#FAD040;stroke-width:1.5;stroke-miterlimit:10;}
	.st131{fill:none;stroke:#969696;stroke-miterlimit:10;}
	.st132{fill:#FFFFFF;stroke:#969696;stroke-miterlimit:10;}
	.st133{fill:#1DA05F;}
	.st134{fill:#418DED;}
	.st135{clip-path:url(#SVGID_10_);fill:#E6AF40;}
	.st136{clip-path:url(#SVGID_12_);fill:#E6AF40;}
	.st137{fill:#E6AF40;}
	.st138{clip-path:url(#SVGID_14_);fill:#E6AF40;}
	.st139{clip-path:url(#SVGID_16_);fill:#E6AF40;}
	.st140{clip-path:url(#SVGID_18_);fill:#E6AF40;}
	.st141{clip-path:url(#SVGID_20_);fill:#E6AF40;}
	.st142{opacity:0.3;fill:none;stroke:#FFFFFF;stroke-miterlimit:10;}
	.st143{fill:none;stroke:#F18740;stroke-width:3;stroke-linecap:round;stroke-linejoin:round;stroke-miterlimit:10;}
	.st144{fill:none;stroke:#FAD040;stroke-width:4;stroke-linecap:round;stroke-linejoin:round;}
	.st145{fill:none;stroke:#FAD040;stroke-width:4;stroke-linecap:round;stroke-linejoin:round;stroke-dasharray:0,8.08327;}
	.st146{fill:none;stroke:#F384FF;stroke-miterlimit:10;}
	.st147{opacity:0.8;fill:none;stroke:#FFFFFF;stroke-miterlimit:10;}
	.st148{fill:#BDBDBD;}
</style>
<g id="BACKGROUND" class="st0">
	<rect x="-1.37737" y="-2.19746" class="st1" width="563.45618" height="602.48529"/>
</g>
<g id="HIGGS_two">
</g>
<g id="NEW_LINES">
</g>
<g id="NEW_LINES_copy">
</g>
<g id="Line_back">
</g>
<g id="Particles_2">
</g>
<g id="Text_x2F_leaders">
	<g>
		<g>
			<g>
				<path class="st21" d="M277.69214,289.64853L155.63037,78.23132c38.88191-22.44848,77.16481-32.70635,122.06177-32.70635
					V289.64853z"/>
			</g>
		</g>
		<g>
			<g>
				<path class="st21" d="M277.69214,289.64853L66.27496,167.58675c22.44848-38.88191,50.47351-66.90694,89.35542-89.35542
					L277.69214,289.64853z"/>
			</g>
		</g>
		<g>
			<g>
				<path class="st21" d="M277.69214,289.64853H33.5686c0-44.89697,10.25787-83.17987,32.70635-122.06178L277.69214,289.64853z"/>
			</g>
		</g>
		<g>
			<g>
				<path class="st22" d="M277.69214,289.64853L66.27496,411.7103C43.82648,372.82837,33.5686,334.54547,33.5686,289.64853
					H277.69214z"/>
			</g>
		</g>
		<g>
			<g>
				<path class="st22" d="M277.69214,289.64853L155.63037,501.0657c-38.8819-22.44849-66.90694-50.47351-89.35542-89.35541
					L277.69214,289.64853z"/>
			</g>
		</g>
		<g>
			<g>
				<path class="st22" d="M277.69214,289.64853v244.1235c-44.89696,0-83.17986-10.25787-122.06177-32.70633L277.69214,289.64853z"/>
			</g>
		</g>
		<g>
			<g>
				<path class="st22" d="M277.69214,289.64853L399.75391,501.0657c-38.8819,22.44846-77.16479,32.70633-122.06177,32.70633
					V289.64853z"/>
			</g>
		</g>
		<g>
			<g>
				<path class="st22" d="M277.69214,289.64853L489.10934,411.7103c-22.44849,38.8819-50.47351,66.90692-89.35544,89.35541
					L277.69214,289.64853z"/>
			</g>
		</g>
		<g>
			<g>
				<path class="st22" d="M277.69214,289.64853h244.12354c0,44.89694-10.25784,83.17984-32.70633,122.06177L277.69214,289.64853z"/>
			</g>
		</g>
		<g>
			<g>
				<path class="st21" d="M277.69214,289.64853l211.41721-122.06178c22.44849,38.88191,32.70633,77.16481,32.70633,122.06178
					H277.69214z"/>
			</g>
		</g>
		<g>
			<g>
				<path class="st21" d="M277.69214,289.64853L399.75391,78.23132c38.88193,22.44849,66.90695,50.47351,89.35544,89.35542
					L277.69214,289.64853z"/>
			</g>
		</g>
		<g>
			<g>
				<path class="st21" d="M277.69214,289.64853V45.52497c44.89697,0,83.17987,10.25787,122.06177,32.70635L277.69214,289.64853z"/>
			</g>
		</g>
	</g>
	<g>
		<g>
			<g>
				<path class="st23" d="M277.69214,289.64853H140.24069c0-75.91235,61.53911-137.45146,137.45145-137.45146l0,0V289.64853z"/>
			</g>
		</g>
		<g>
			<g>
				<path class="st23" d="M277.69214,289.64853v137.45145c-75.91234,0-137.45145-61.53912-137.45145-137.45145l0,0H277.69214z"/>
			</g>
		</g>
		<g>
			<g>
				<path class="st23" d="M277.69214,289.64853h137.45145c0,75.91232-61.53909,137.45145-137.45145,137.45145l0,0V289.64853z"/>
			</g>
		</g>
		<g>
			<g>
				<path class="st23" d="M277.69214,289.64853V152.19707c75.91235,0,137.45145,61.53911,137.45145,137.45146l0,0H277.69214z"/>
			</g>
		</g>
	</g>
	<circle class="st24" cx="52.62034" cy="579.25183" r="8.28681"/>
	<circle class="st25" cx="140.02115" cy="579.25183" r="8.28681"/>
	<circle class="st26" cx="264.21759" cy="579.25183" r="8.28681"/>
	<circle class="st27" cx="401.99915" cy="579.25183" r="8.28681"/>
	<circle class="st28" cx="277.69214" cy="289.64853" r="51.66184"/>
</g>
<g id="Higgs">
</g>
<g id="Triangles_1_">
</g>
<g id="HIGGS">
</g>
<g id="Circles">
</g>
<g id="Circles_copy">
</g>
<g id="Lines_front">
</g>
<g id="Particles">
</g>
<g id="Particles_perspective">
</g>
<g id="Circle_shad">
</g>
<g id="MARGINS">
</g>
<g id="TEXT">
	<g>
		<path class="st93" d="M188.79199,13.17899h-3.36035v11.88232h-2.46094V13.17899h-3.36035v-2.3208h9.18164V13.17899z"/>
		<path class="st93" d="M200.91211,19.07986v5.98145h-2.45996v-4.84082c0-2.36084-0.86035-3.16113-2.2207-3.16113
			c-1.7207,0-2.74023,1.30029-2.80078,2.94092v5.06104h-2.45996V10.05789h2.45996v6.36182
			c0.98047-0.96045,2.24023-1.68066,3.76074-1.68066C199.63184,14.73904,200.91211,16.31961,200.91211,19.07986z"/>
		<path class="st93" d="M213.13379,20.76053h-7.66211c0.06055,1.24023,1,2.32031,2.78125,2.32031
			c1.2793,0,2.09961-0.68018,2.5-1.38037l2.16016,0.24023c-0.2998,1.38037-1.87988,3.3208-4.68066,3.3208
			c-3.12109,0-5.2207-2.36084-5.2207-5.32129c0-2.8208,2-5.20117,5.06055-5.20117c3.12109,0,5.06152,2.48047,5.06152,5.38135
			V20.76053z M205.47168,19.05984h5.20117c-0.08008-1.12012-1.06055-2.14014-2.60059-2.14014
			C206.57227,16.91971,205.53223,17.89969,205.47168,19.05984z"/>
		<path class="st93" d="M224.8916,20.76053c0.08008,1.47998,1.14062,2.18018,2.34082,2.18018
			c1.32031,0,2.04004-0.68018,2.04004-1.52002c0-1.14062-1.08008-1.68066-2.7002-2.56055
			c-2.86035-1.64062-3.84082-2.66064-3.84082-4.56104c0-2.16064,1.86035-3.64111,4.2002-3.64111
			c2.58105,0,4.28125,1.9209,4.3418,4.34131h-2.46094c-0.05957-1.26025-0.7998-2.02051-1.88086-2.02051
			c-0.93945,0-1.74023,0.56006-1.74023,1.42041c0,1.08008,0.82031,1.5,2.26074,2.26025
			c2.7002,1.46045,4.28125,2.68066,4.28125,4.84131c0,2.40039-2.02051,3.76074-4.50098,3.76074
			c-2.98047,0-4.74121-2.16064-4.80176-4.50098H224.8916z"/>
		<path class="st93" d="M239.81152,17.25955h-2.24023v7.80176h-2.46094v-7.80176h-1.58008v-2.32031h1.58008v-3.00098h2.46094
			v3.00098h2.24023V17.25955z"/>
		<path class="st93" d="M246.19141,14.73904c1.74023,0,3.10059,0.92041,3.62109,2.08057l0.13965-1.88037h2.34082v10.12207h-2.34082
			l-0.13965-1.88037c-0.52051,1.16016-1.88086,2.08057-3.62109,2.08057c-2.90039,0-5.02051-2.36084-5.02051-5.26123
			C241.1709,17.0994,243.29102,14.73904,246.19141,14.73904z M246.61133,22.9407c1.7207,0,2.94141-1.34033,2.94141-2.94043
			c0-1.60059-1.2207-2.94092-2.94141-2.94092c-1.74023,0-2.98047,1.34033-2.98047,2.94092
			C243.63086,21.60037,244.87109,22.9407,246.61133,22.9407z"/>
		<path class="st93" d="M264.93164,19.07986v5.98145h-2.45996v-4.84082c0-2.36084-0.86035-3.16113-2.2207-3.16113
			c-1.7207,0-2.74023,1.30029-2.80078,2.94092v5.06104h-2.45996V14.93924h2.32031l0.12012,1.5
			c0.97949-0.97998,2.25977-1.7002,3.78027-1.7002C263.65137,14.73904,264.93164,16.31961,264.93164,19.07986z"/>
		<path class="st93" d="M272.05078,14.73904c1.74023,0,3.10059,0.92041,3.62109,2.08057v-6.76172h2.48047v15.00342h-2.34082
			l-0.13965-1.88037c-0.52051,1.16016-1.88086,2.08057-3.62109,2.08057c-2.90039,0-5.02051-2.36084-5.02051-5.26123
			C267.03027,17.0994,269.15039,14.73904,272.05078,14.73904z M272.4707,22.9407c1.7207,0,2.94141-1.34033,2.94141-2.94043
			c0-1.60059-1.2207-2.94092-2.94141-2.94092c-1.74023,0-2.98047,1.34033-2.98047,2.94092
			C269.49023,21.60037,270.73047,22.9407,272.4707,22.9407z"/>
		<path class="st93" d="M285.6709,14.73904c1.74023,0,3.10059,0.92041,3.62109,2.08057l0.13965-1.88037h2.34082v10.12207h-2.34082
			l-0.13965-1.88037c-0.52051,1.16016-1.88086,2.08057-3.62109,2.08057c-2.90039,0-5.02051-2.36084-5.02051-5.26123
			C280.65039,17.0994,282.77051,14.73904,285.6709,14.73904z M286.09082,22.9407c1.7207,0,2.94141-1.34033,2.94141-2.94043
			c0-1.60059-1.2207-2.94092-2.94141-2.94092c-1.74023,0-2.98047,1.34033-2.98047,2.94092
			C283.11035,21.60037,284.35059,22.9407,286.09082,22.9407z"/>
		<path class="st93" d="M300.33105,15.17899l-0.36035,2.14062c-0.2002-0.12012-0.60059-0.26025-1-0.26025
			c-1.32031,0-2.04102,1.36035-2.04102,3.50098v4.50098h-2.45996V14.93924h2.32031l0.09961,1.1001
			c0.64062-0.78027,1.38086-1.30029,2.2207-1.30029C299.69043,14.73904,300.11035,14.95926,300.33105,15.17899z"/>
		<path class="st93" d="M306.38965,14.73904c1.74023,0,3.10059,0.92041,3.62109,2.08057v-6.76172h2.48047v15.00342h-2.34082
			l-0.13965-1.88037c-0.52051,1.16016-1.88086,2.08057-3.62109,2.08057c-2.90039,0-5.02051-2.36084-5.02051-5.26123
			C301.36914,17.0994,303.48926,14.73904,306.38965,14.73904z M306.80957,22.9407c1.7207,0,2.94141-1.34033,2.94141-2.94043
			c0-1.60059-1.2207-2.94092-2.94141-2.94092c-1.74023,0-2.98047,1.34033-2.98047,2.94092
			C303.8291,21.60037,305.06934,22.9407,306.80957,22.9407z"/>
		<path class="st93" d="M336.61133,10.85818v14.20312h-2.48047V15.2991l-4.46094,7.12158h-1l-4.46094-7.12158v9.76221h-2.45996
			V10.85818h2.45996l4.96094,7.8418l4.96094-7.8418H336.61133z"/>
		<path class="st93" d="M339.16992,20.00027c0-2.90088,2.25977-5.26123,5.44043-5.26123c3.16113,0,5.40137,2.36035,5.40137,5.26123
			c0,2.90039-2.24023,5.26123-5.40137,5.26123C341.42969,25.26151,339.16992,22.90067,339.16992,20.00027z M347.55176,20.00027
			c0-1.60059-1.2207-2.94092-2.94141-2.94092c-1.74023,0-2.98047,1.34033-2.98047,2.94092c0,1.6001,1.24023,2.94043,2.98047,2.94043
			C346.33105,22.9407,347.55176,21.60037,347.55176,20.00027z"/>
		<path class="st93" d="M356.79102,14.73904c1.74023,0,3.10059,0.92041,3.62109,2.08057v-6.76172h2.48047v15.00342h-2.34082
			l-0.13965-1.88037c-0.52051,1.16016-1.88086,2.08057-3.62109,2.08057c-2.90039,0-5.02051-2.36084-5.02051-5.26123
			C351.77051,17.0994,353.89062,14.73904,356.79102,14.73904z M357.21094,22.9407c1.7207,0,2.94141-1.34033,2.94141-2.94043
			c0-1.60059-1.2207-2.94092-2.94141-2.94092c-1.74023,0-2.98047,1.34033-2.98047,2.94092
			C354.23047,21.60037,355.4707,22.9407,357.21094,22.9407z"/>
		<path class="st93" d="M375.51172,20.76053h-7.66211c0.06055,1.24023,1,2.32031,2.78027,2.32031
			c1.28125,0,2.10059-0.68018,2.50098-1.38037l2.16016,0.24023c-0.2998,1.38037-1.87988,3.3208-4.68066,3.3208
			c-3.12109,0-5.2207-2.36084-5.2207-5.32129c0-2.8208,2-5.20117,5.06055-5.20117c3.12109,0,5.06152,2.48047,5.06152,5.38135
			V20.76053z M367.84961,19.05984h5.20117c-0.08008-1.12012-1.06055-2.14014-2.60059-2.14014
			C368.9502,16.91971,367.91016,17.89969,367.84961,19.05984z"/>
		<path class="st93" d="M379.98926,25.06131h-2.45996V10.05789h2.45996V25.06131z"/>
	</g>
	<g>
		<path class="st4" d="M229.69922,122.31863h-2.39453v8.55859h-1.45703v-8.55859h-2.39551v-1.38672h6.24707V122.31863z"/>
		<path class="st4" d="M229.82227,127.33328c0-2.03125,1.59668-3.68408,3.7959-3.68408c2.1709,0,3.75391,1.65283,3.75391,3.68408
			s-1.58301,3.68408-3.75391,3.68408C231.41895,131.01736,229.82227,129.36453,229.82227,127.33328z M235.91504,127.33328
			c0-1.26074-0.98047-2.29736-2.29688-2.29736c-1.34473,0-2.33887,1.03662-2.33887,2.29736s0.99414,2.29736,2.33887,2.29736
			C234.93457,129.63065,235.91504,128.59402,235.91504,127.33328z"/>
		<path class="st4" d="M238.92285,123.78934h1.37305l0.08398,1.45703c0.41992-0.89648,1.42871-1.59717,2.70312-1.59717
			c2.03125,0,3.55762,1.65283,3.55762,3.68408s-1.52637,3.68408-3.55762,3.68408c-1.27441,0-2.2832-0.70068-2.70312-1.61084v4.69238
			h-1.45703V123.78934z M242.84473,129.63065c1.33105,0,2.3252-1.03662,2.3252-2.29736s-0.99414-2.29736-2.3252-2.29736
			c-1.33008,0-2.29688,1.03662-2.29688,2.29736S241.51465,129.63065,242.84473,129.63065z"/>
	</g>
	<g>
		<g>
			<path class="st4" d="M236.1626,99.70047h-3.4043v12.83057h-3.31055V99.70047h-2.36426v-3.12109h2.36426v-4.72852h3.31055v4.72852
				h3.4043V99.70047z"/>
		</g>
	</g>
	<g>
		<path class="st4" d="M313.85742,125.90457c0,2.7876-1.91895,4.97266-4.74805,4.97266h-3.32031v-9.94531h3.32031
			C311.93848,120.93192,313.85742,123.11697,313.85742,125.90457z M312.40137,125.90457c0-2.24121-1.41504-3.58594-3.29199-3.58594
			h-1.84863v7.17188h1.84863C310.98633,129.49051,312.40137,128.14578,312.40137,125.90457z"/>
		<path class="st4" d="M315.01562,127.33328c0-2.03125,1.59668-3.68408,3.7959-3.68408c2.1709,0,3.75391,1.65283,3.75391,3.68408
			s-1.58301,3.68408-3.75391,3.68408C316.6123,131.01736,315.01562,129.36453,315.01562,127.33328z M321.1084,127.33328
			c0-1.26074-0.98047-2.29736-2.29688-2.29736c-1.34473,0-2.33887,1.03662-2.33887,2.29736s0.99414,2.29736,2.33887,2.29736
			C320.12793,129.63065,321.1084,128.59402,321.1084,127.33328z"/>
		<path class="st4" d="M334.86035,123.78934l-2.56348,7.08789h-1.52637l-1.79297-4.94482l-1.7793,4.94482h-1.52734l-2.5625-7.08789
			h1.55469l1.76465,5.28076l1.7793-5.28076h1.55469l1.76465,5.28076l1.7793-5.28076H334.86035z"/>
		<path class="st4" d="M343.04688,126.71707v4.16016h-1.45605v-3.51611c0-1.7085-0.68652-2.3252-1.70898-2.3252
			c-1.38672,0-2.08789,1.09277-2.15723,2.14307v3.69824h-1.45703v-7.08789h1.37305l0.06934,1.13477
			c0.67285-0.71436,1.58301-1.2749,2.73145-1.2749C342.1084,123.6492,343.04688,124.74197,343.04688,126.71707z"/>
	</g>
	<g>
		<g>
			<path class="st4" d="M324.8252,96.26443c2.86816,0,5.13867,1.57617,6.05273,3.59375v-10.9707h3.30957v23.64355h-3.12109
				l-0.18848-3.31006c-0.91406,2.04883-3.18457,3.62549-6.05273,3.62549c-4.57129,0-8.00781-3.72021-8.00781-8.29102
				C316.81738,99.98416,320.25391,96.26443,324.8252,96.26443z M325.36133,109.72537c2.96289,0,5.16992-2.33301,5.16992-5.16992
				c0-2.8374-2.20703-5.17041-5.16992-5.17041c-3.02637,0-5.26465,2.33301-5.26465,5.17041
				C320.09668,107.39236,322.33496,109.72537,325.36133,109.72537z"/>
		</g>
	</g>
	<g>
		<path class="st4" d="M88.22754,268.68631c-2.42285,0-3.93652-1.34473-3.93652-4.31445v-5.771h1.47168v5.771
			c0,2.14307,0.93848,2.92773,2.46484,2.92773c1.52734,0,2.46582-0.78467,2.46582-2.92773v-5.771h1.45605v5.771
			C92.14941,267.34158,90.63672,268.68631,88.22754,268.68631z"/>
		<path class="st4" d="M93.85352,261.45828h1.37305l0.08398,1.45703c0.41992-0.89648,1.42871-1.59717,2.70312-1.59717
			c2.03125,0,3.55762,1.65283,3.55762,3.68408s-1.52637,3.68408-3.55762,3.68408c-1.27441,0-2.2832-0.70068-2.70312-1.61084v4.69238
			h-1.45703V261.45828z M97.77539,267.29959c1.33105,0,2.3252-1.03662,2.3252-2.29736s-0.99414-2.29736-2.3252-2.29736
			c-1.33008,0-2.29688,1.03662-2.29688,2.29736S96.44531,267.29959,97.77539,267.29959z"/>
	</g>
	<g>
		<g>
			<path class="st4" d="M99.46387,234.52908v15.95166H96.375l-0.1582-2.55371c-1.5127,1.60791-3.56152,2.86914-6.14648,2.86914
				c-3.75195,0-5.86426-2.45898-5.86426-6.9043v-9.36279h3.27832v7.91309c0,3.8457,1.54492,5.23291,3.84668,5.23291
				c3.27832,0,4.85449-2.71094,4.85449-5.20166v-7.94434H99.46387z"/>
		</g>
	</g>
	<g>
		<path class="st4" d="M448.63086,263.50418c0,1.80664-1.3584,2.81543-3.50195,2.81543h-3.19336v-9.94531h2.9834
			c2.07324,0,3.15137,1.09277,3.15137,2.6333c0,0.85449-0.40625,1.55469-1.05078,2.00293
			C447.94434,261.50125,448.63086,262.36942,448.63086,263.50418z M443.3916,260.40848h1.52734
			c1.07812,0,1.68066-0.40625,1.68066-1.33057c0-0.85449-0.60254-1.31689-1.68066-1.31689h-1.52734V260.40848z M447.16016,263.4202
			c0-0.95264-0.68652-1.625-1.96094-1.625h-1.80762v3.1377h1.7373C446.47363,264.93289,447.16016,264.38651,447.16016,263.4202z"/>
		<path class="st4" d="M449.95703,262.77567c0-2.03125,1.59668-3.68408,3.7959-3.68408c2.1709,0,3.75391,1.65283,3.75391,3.68408
			s-1.58301,3.68408-3.75391,3.68408C451.55371,266.45975,449.95703,264.80692,449.95703,262.77567z M456.0498,262.77567
			c0-1.26074-0.98047-2.29736-2.29688-2.29736c-1.34473,0-2.33887,1.03662-2.33887,2.29736s0.99414,2.29736,2.33887,2.29736
			C455.06934,265.07303,456.0498,264.03641,456.0498,262.77567z"/>
		<path class="st4" d="M462.67188,260.61844h-1.5127v5.70117h-1.47168v-5.70117h-1.0498v-1.38672h1.0498v-2.10107h1.47168v2.10107
			h1.5127V260.61844z"/>
		<path class="st4" d="M467.72559,260.61844h-1.51367v5.70117h-1.4707v-5.70117h-1.0498v-1.38672h1.0498v-2.10107h1.4707v2.10107
			h1.51367V260.61844z"/>
		<path class="st4" d="M468.64746,262.77567c0-2.03125,1.59668-3.68408,3.7959-3.68408c2.1709,0,3.75391,1.65283,3.75391,3.68408
			s-1.58301,3.68408-3.75391,3.68408C470.24414,266.45975,468.64746,264.80692,468.64746,262.77567z M474.74023,262.77567
			c0-1.26074-0.98047-2.29736-2.29688-2.29736c-1.34473,0-2.33887,1.03662-2.33887,2.29736s0.99414,2.29736,2.33887,2.29736
			C473.75977,265.07303,474.74023,264.03641,474.74023,262.77567z"/>
		<path class="st4" d="M488.72949,261.87918v4.44043h-1.45605v-3.9502c0-1.13477-0.50488-1.89111-1.41504-1.89111
			c-1.12109,0-1.82129,1.14893-1.89062,2.63379v3.20752h-1.45703v-3.9502c0-1.13477-0.49023-1.89111-1.41504-1.89111
			c-1.12012,0-1.82129,1.14893-1.89062,2.63379v3.20752h-1.45703v-7.08789h1.37305l0.06934,1.10645
			c0.61621-0.71436,1.42871-1.24658,2.45117-1.24658c1.06543,0,1.7793,0.57422,2.11523,1.48486
			c0.64453-0.82617,1.51367-1.48486,2.64746-1.48486C487.91699,259.09158,488.72949,260.24051,488.72949,261.87918z"/>
	</g>
	<g>
		<g>
			<path class="st4" d="M465.43848,248.56912c-2.86914,0-5.16992-1.57666-6.08496-3.62549l-0.15723,3.31006h-3.12109v-23.64355
				h3.27832v10.9707c0.91504-2.01758,3.21582-3.59375,6.08496-3.59375c4.57129,0,7.97559,3.71973,7.97559,8.29102
				C473.41406,244.84891,470.00977,248.56912,465.43848,248.56912z M464.90234,235.1077c-2.99512,0-5.20117,2.33301-5.20117,5.17041
				c0,2.83691,2.20605,5.16992,5.20117,5.16992s5.2334-2.33301,5.2334-5.16992
				C470.13574,237.4407,467.89746,235.1077,464.90234,235.1077z"/>
		</g>
	</g>
	<g>
		<path class="st4" d="M88.6123,346.18875h-2.39453v8.55859h-1.45703v-8.55859h-2.39551v-1.38672h6.24707V346.18875z"/>
		<path class="st4" d="M92.29297,347.51932c1.27539,0,2.2832,0.70068,2.68945,1.59717l0.08398-1.45703h1.38672v7.08789h-1.38672
			l-0.08398-1.4707c-0.40625,0.91016-1.41406,1.61084-2.68945,1.61084c-2.03125,0-3.55762-1.65283-3.55762-3.68408
			S90.26172,347.51932,92.29297,347.51932z M92.53125,353.50076c1.31641,0,2.29688-1.03662,2.29688-2.29736
			s-0.98047-2.29736-2.29688-2.29736c-1.34473,0-2.33887,1.03662-2.33887,2.29736S91.18652,353.50076,92.53125,353.50076z"/>
		<path class="st4" d="M105.06348,347.65945v7.08789h-1.37305l-0.06934-1.13477c-0.67285,0.71436-1.58301,1.2749-2.73145,1.2749
			c-1.66699,0-2.60547-1.09277-2.60547-3.06787v-4.16016h1.45605v3.51611c0,1.70898,0.68652,2.3252,1.70898,2.3252
			c1.45703,0,2.15723-1.20459,2.15723-2.31152v-3.52979H105.06348z"/>
	</g>
	<g>
		<path class="st4" d="M95.42773,339.95047c-0.32031,0.15967-0.95996,0.25586-1.53613,0.25586
			c-2.49609,0-3.58398-1.53613-3.58398-4.7998v-8.83105H88.6123c-1.63184,0-2.46387,0.12793-3.13574,0.25586l-0.38477-1.63184
			c0.54395-0.38428,1.69629-0.83203,4.22363-0.83203h8.92773l-0.35156,2.20801h-4.7998v8.76709
			c0,2.11182,0.83203,2.62402,1.79199,2.62402c0.25586,0,0.47949,0,0.67188-0.03223L95.42773,339.95047z"/>
	</g>
	<g>
		<path class="st4" d="M132.4082,168.0867c-2.00293,0-3.68359,1.56885-3.68359,3.72607s1.68066,3.72607,3.68359,3.72607
			c1.40039,0,2.31152-0.64453,2.74512-1.07861v1.48486c-0.49023,0.43408-1.45605,0.98047-2.91309,0.98047
			c-2.78711,0-4.97266-2.24121-4.97266-5.11279s2.18555-5.11279,4.97266-5.11279c1.45703,0,2.42285,0.54639,2.91309,0.98047v1.48486
			C134.71973,168.71707,133.80859,168.0867,132.4082,168.0867z"/>
		<path class="st4" d="M143.79102,172.62527v4.16016h-1.45605v-3.51611c0-1.7085-0.68652-2.3252-1.70898-2.3252
			c-1.38672,0-2.08789,1.09277-2.15723,2.14307v3.69824h-1.45703v-10.50586h1.45703v4.53857
			c0.67188-0.71436,1.58301-1.26074,2.7168-1.26074C142.85254,169.5574,143.79102,170.65018,143.79102,172.62527z"/>
		<path class="st4" d="M148.77344,169.5574c1.27539,0,2.2832,0.70068,2.68945,1.59717l0.08398-1.45703h1.38672v7.08789h-1.38672
			l-0.08398-1.4707c-0.40625,0.91016-1.41406,1.61084-2.68945,1.61084c-2.03125,0-3.55762-1.65283-3.55762-3.68408
			S146.74219,169.5574,148.77344,169.5574z M149.01172,175.53885c1.31641,0,2.29688-1.03662,2.29688-2.29736
			s-0.98047-2.29736-2.29688-2.29736c-1.34473,0-2.33887,1.03662-2.33887,2.29736S147.66699,175.53885,149.01172,175.53885z"/>
		<path class="st4" d="M158.72754,169.86551l-0.22461,1.2749c-0.13965-0.08398-0.41992-0.19629-0.72852-0.19629
			c-1.00781,0-1.49805,1.07861-1.49805,2.49365v3.34766h-1.45703v-7.08789h1.37305l0.06934,0.82666
			c0.44824-0.57471,0.98047-0.9668,1.59766-0.9668C158.2793,169.5574,158.57324,169.72586,158.72754,169.86551z"/>
		<path class="st4" d="M171.06445,172.345v4.44043h-1.45605v-3.9502c0-1.13477-0.50488-1.89111-1.41504-1.89111
			c-1.12109,0-1.82129,1.14893-1.89062,2.63379v3.20752h-1.45703v-3.9502c0-1.13477-0.49023-1.89111-1.41504-1.89111
			c-1.12012,0-1.82129,1.14893-1.89062,2.63379v3.20752h-1.45703v-7.08789h1.37305l0.06934,1.10645
			c0.61621-0.71436,1.42871-1.24658,2.45215-1.24658c1.06445,0,1.77832,0.57422,2.11426,1.48486
			c0.64453-0.82617,1.51367-1.48486,2.64746-1.48486C170.25293,169.5574,171.06445,170.70633,171.06445,172.345z"/>
	</g>
	<g>
		<g>
			<path class="st4" d="M149.31055,147.52029c-2.71094,0-5.26465,2.14404-5.26465,5.17041s2.55371,5.16992,5.26465,5.16992
				c1.63965,0,3.05859-0.59912,4.31934-1.82861v3.18408c-1.13477,1.07178-2.77441,1.76562-4.82324,1.76562
				c-4.69727,0-8.22852-3.7832-8.22852-8.29102c0-4.47656,3.53125-8.29102,8.22852-8.29102
				c2.04883,0,3.68848,0.69336,4.82324,1.76514v3.15283C152.36914,148.08817,150.9502,147.52029,149.31055,147.52029z"/>
		</g>
	</g>
	<g>
		<path class="st4" d="M205.23682,485.09891v2.75977h3.10938v1.38672h-3.10938v3.02539h3.99121v1.38672h-5.46289v-9.94531h5.46289
			v1.38672H205.23682z"/>
		<path class="st4" d="M212.53076,493.6575h-1.45703v-10.50586h1.45703V493.6575z"/>
		<path class="st4" d="M221.22803,490.5618h-5.63086c0.04199,1.09277,0.85449,1.93262,2.21289,1.93262
			c1.02246,0,1.66699-0.55957,1.96094-1.10645l1.27441,0.14062c-0.2373,0.98047-1.34473,2.26855-3.24902,2.26855
			c-2.15723,0-3.65625-1.61035-3.65625-3.72559c0-1.97461,1.41504-3.6416,3.54395-3.6416c2.18555,0,3.54395,1.75098,3.54395,3.76758
			V490.5618z M215.59717,489.53934h4.16016c-0.05664-0.95215-0.84082-1.80664-2.07324-1.80664
			C216.49365,487.7327,215.65283,488.5452,215.59717,489.53934z"/>
		<path class="st4" d="M226.44775,487.81668c-1.2041,0-2.33887,0.95215-2.33887,2.29688s1.13477,2.29688,2.33887,2.29688
			c0.72852,0,1.3584-0.26562,1.91895-0.8125v1.41504c-0.50391,0.47656-1.23242,0.78418-2.14258,0.78418
			c-2.08789,0-3.65625-1.68066-3.65625-3.68359c0-1.98926,1.56836-3.68359,3.65625-3.68359
			c0.91016,0,1.63867,0.30762,2.14258,0.78418v1.40039C227.80615,488.06863,227.17627,487.81668,226.44775,487.81668z"/>
		<path class="st4" d="M233.7417,487.95633h-1.51367v5.70117h-1.4707v-5.70117h-1.0498v-1.38672h1.0498v-2.10156h1.4707v2.10156
			h1.51367V487.95633z"/>
		<path class="st4" d="M239.07568,486.73758l-0.22461,1.27441c-0.13965-0.08398-0.41992-0.19531-0.72852-0.19531
			c-1.00781,0-1.49805,1.07812-1.49805,2.49316v3.34766h-1.45703v-7.08789h1.37305l0.06934,0.82617
			c0.44824-0.57422,0.98047-0.96582,1.59766-0.96582C238.62744,486.42996,238.92139,486.59793,239.07568,486.73758z"/>
		<path class="st4" d="M239.73193,490.11356c0-2.03125,1.59668-3.68359,3.7959-3.68359c2.1709,0,3.75391,1.65234,3.75391,3.68359
			s-1.58301,3.68359-3.75391,3.68359C241.32861,493.79715,239.73193,492.14481,239.73193,490.11356z M245.82471,490.11356
			c0-1.26074-0.98047-2.29688-2.29688-2.29688c-1.34473,0-2.33887,1.03613-2.33887,2.29688s0.99414,2.29688,2.33887,2.29688
			C244.84424,492.41043,245.82471,491.3743,245.82471,490.11356z"/>
		<path class="st4" d="M255.61084,489.49734v4.16016h-1.45605v-3.51562c0-1.70898-0.68652-2.3252-1.70898-2.3252
			c-1.38672,0-2.08789,1.0918-2.15723,2.14258v3.69824h-1.45703v-7.08789h1.37305l0.06934,1.13477
			c0.67285-0.71484,1.58301-1.27441,2.73145-1.27441C254.67236,486.42996,255.61084,487.52176,255.61084,489.49734z"/>
	</g>
	<g>
		<g>
			<path class="st4" d="M237.87109,470.29129h-12.67285c0.09375,2.45898,1.92285,4.35059,4.98047,4.35059
				c2.30176,0,3.75098-1.26172,4.41309-2.49121l2.86914,0.31543c-0.53613,2.20703-3.02637,5.10742-7.31348,5.10742
				c-4.85547,0-8.22852-3.62598-8.22852-8.38574c0-4.44531,3.18457-8.19629,7.97559-8.19629
				c4.91797,0,7.97656,3.94043,7.97656,8.48047V470.29129z M225.19824,467.98953h9.3623
				c-0.12598-2.14355-1.8916-4.06641-4.66602-4.06641C227.21582,463.92313,225.32422,465.75125,225.19824,467.98953z"/>
		</g>
	</g>
	<g>
		<path class="st4" d="M388.56348,171.67313c0.07031,1.12061,0.91016,1.63916,1.82031,1.63916
			c1.03711,0,1.625-0.53223,1.625-1.24658c0-0.91064-0.85449-1.35889-2.0166-1.96143
			c-1.86328-1.05029-2.67578-1.73682-2.67578-3.1377c0-1.4707,1.27441-2.49316,2.88574-2.49316
			c1.72266,0,2.87109,1.28857,2.92773,2.88574h-1.45703c-0.05566-0.91064-0.64453-1.49902-1.4707-1.49902
			c-0.78418,0-1.42871,0.4624-1.42871,1.1626c0,0.89648,0.68652,1.21875,1.7373,1.76514
			c1.80664,0.95264,2.96875,1.79297,2.96875,3.3335c0,1.625-1.37207,2.57764-3.0957,2.57764
			c-1.96094,0-3.22168-1.38672-3.27734-3.02588H388.56348z"/>
		<path class="st4" d="M398.63086,168.8577h-1.5127v5.70117h-1.47168v-5.70117h-1.0498v-1.38672h1.0498v-2.10107h1.47168v2.10107
			h1.5127V168.8577z"/>
		<path class="st4" d="M403.96484,167.63895l-0.22461,1.2749c-0.13965-0.08398-0.41992-0.19629-0.72852-0.19629
			c-1.00781,0-1.49805,1.07861-1.49805,2.49365v3.34766h-1.45703v-7.08789h1.37305l0.06934,0.82666
			c0.44824-0.57471,0.98047-0.9668,1.59766-0.9668C403.5166,167.33084,403.81055,167.4993,403.96484,167.63895z"/>
		<path class="st4" d="M408.17773,167.33084c1.27539,0,2.2832,0.70068,2.68945,1.59717l0.08398-1.45703h1.38672v7.08789h-1.38672
			l-0.08398-1.4707c-0.40625,0.91016-1.41406,1.61084-2.68945,1.61084c-2.03125,0-3.55762-1.65283-3.55762-3.68408
			S406.14648,167.33084,408.17773,167.33084z M408.41602,173.31229c1.31641,0,2.29688-1.03662,2.29688-2.29736
			s-0.98047-2.29736-2.29688-2.29736c-1.34473,0-2.33887,1.03662-2.33887,2.29736S407.07129,173.31229,408.41602,173.31229z"/>
		<path class="st4" d="M421.00391,170.39871v4.16016h-1.45605v-3.51611c0-1.7085-0.68652-2.3252-1.70898-2.3252
			c-1.38672,0-2.08789,1.09277-2.15723,2.14307v3.69824h-1.45703v-7.08789h1.37305l0.06934,1.13477
			c0.67285-0.71436,1.58301-1.2749,2.73145-1.2749C420.06543,167.33084,421.00391,168.42361,421.00391,170.39871z"/>
		<path class="st4" d="M428.99805,168.77371l-0.72852-0.09814c0.22461,0.37842,0.36426,0.82666,0.36426,1.31689
			c0,1.54102-1.28809,2.66113-2.96973,2.66113c-0.36328,0-0.71387-0.05566-1.02246-0.15381
			c-0.19531,0.09814-0.29395,0.22412-0.29395,0.39209c0,0.3501,0.49023,0.43457,1.27441,0.43457
			c2.18555,0,3.3623,0.95215,3.3623,2.29688c0,1.48486-1.49902,2.29736-3.1377,2.29736s-3.1377-0.8125-3.1377-2.29736
			c0-0.75635,0.39258-1.23242,0.88281-1.54053c-0.37891-0.23828-0.63086-0.56055-0.63086-0.93848
			c0-0.50439,0.40625-0.86865,0.82617-1.06494c-0.6582-0.47607-1.07812-1.21875-1.07812-2.08691
			c0-1.55469,1.28906-2.66162,2.95508-2.66162c0.5332,0,1.02344,0.1123,1.44336,0.30811l1.89062-0.16797V168.77371z
			 M427.24707,169.99246c0-0.84033-0.71387-1.44287-1.58301-1.44287c-0.85449,0-1.56836,0.60254-1.56836,1.44287
			c0,0.82617,0.71387,1.42871,1.56836,1.42871C426.5332,171.42117,427.24707,170.81863,427.24707,169.99246z M425.20215,174.54471
			c-0.08398,0-0.18164,0-0.28027-0.01367c-0.37793,0.18213-0.82617,0.58838-0.82617,1.06445
			c0,0.7002,0.7002,1.10645,1.75098,1.10645s1.75098-0.3501,1.75098-1.05029
			C427.59766,174.83914,426.65918,174.54471,425.20215,174.54471z"/>
		<path class="st4" d="M437.27246,171.46317h-5.63086c0.04199,1.09277,0.85449,1.93311,2.21289,1.93311
			c1.02246,0,1.66699-0.56055,1.96094-1.10645l1.27441,0.14014c-0.2373,0.98047-1.34473,2.26904-3.24902,2.26904
			c-2.15723,0-3.65625-1.61084-3.65625-3.72607c0-1.9751,1.41504-3.64209,3.54395-3.64209
			c2.18555,0,3.54395,1.75098,3.54395,3.76807V171.46317z M431.6416,170.4407h4.16016
			c-0.05664-0.95264-0.84082-1.80713-2.07324-1.80713C432.53809,168.63358,431.69727,169.44608,431.6416,170.4407z"/>
	</g>
	<g>
		<g>
			<path class="st4" d="M406.47559,153.80496c0.31445,1.29248,1.63867,2.17529,3.6875,2.17529
				c1.6084,0,2.90039-0.63037,2.90039-1.76514c0-1.51318-1.4502-1.86035-4.72852-2.99512
				c-2.52148-0.81934-4.63379-2.04883-4.63379-4.63379c0-2.74268,2.77441-4.41357,5.64258-4.41357
				c3.68848,0,5.95801,2.08057,6.11621,4.69727h-3.31055c-0.12598-1.32422-1.4502-1.95459-2.67969-1.95459
				c-1.16602,0-2.45898,0.56738-2.45898,1.6709c0,1.26074,1.35547,1.54443,4.63477,2.77393
				c3.24707,1.13477,4.72852,2.71094,4.72852,4.91797c0,2.83691-2.74316,4.47656-6.27344,4.47656
				c-3.8457,0-6.58887-1.6709-6.9043-4.94971H406.47559z"/>
		</g>
	</g>
	<g>
		<path class="st4" d="M140.03125,441.20926v9.94531h-1.47168v-7.29785l-3.33301,5.36475h-0.63086l-3.33398-5.36475v7.29785h-1.4707
			v-9.94531h1.4707l3.64258,5.82715l3.65527-5.82715H140.03125z"/>
		<path class="st4" d="M148.86328,444.06668v7.08789h-1.37305l-0.06934-1.13477c-0.67285,0.71436-1.58301,1.2749-2.73242,1.2749
			c-1.66602,0-2.60449-1.09277-2.60449-3.06787v-4.16016h1.45605v3.51611c0,1.70898,0.68652,2.3252,1.70898,2.3252
			c1.45703,0,2.15723-1.20459,2.15723-2.31152v-3.52979H148.86328z"/>
		<path class="st4" d="M150.25977,447.61063c0-2.03125,1.59668-3.68408,3.7959-3.68408c2.1709,0,3.75391,1.65283,3.75391,3.68408
			s-1.58301,3.68408-3.75391,3.68408C151.85645,451.29471,150.25977,449.64188,150.25977,447.61063z M156.35254,447.61063
			c0-1.26074-0.98047-2.29736-2.29688-2.29736c-1.34473,0-2.33887,1.03662-2.33887,2.29736s0.99414,2.29736,2.33887,2.29736
			C155.37207,449.90799,156.35254,448.87137,156.35254,447.61063z"/>
		<path class="st4" d="M166.13867,446.99442v4.16016h-1.45605v-3.51611c0-1.7085-0.68652-2.3252-1.70898-2.3252
			c-1.38672,0-2.08789,1.09277-2.15723,2.14307v3.69824h-1.45703v-7.08789h1.37305l0.06934,1.13477
			c0.67285-0.71436,1.58301-1.2749,2.73145-1.2749C165.2002,443.92654,166.13867,445.01932,166.13867,446.99442z"/>
	</g>
	<g>
		<path class="st4" d="M405.69336,441.20926v9.94531h-1.47168v-7.29785l-3.33301,5.36475h-0.63086l-3.33398-5.36475v7.29785h-1.4707
			v-9.94531h1.4707l3.64258,5.82715l3.65527-5.82715H405.69336z"/>
		<path class="st4" d="M414.52539,444.06668v7.08789h-1.37305l-0.06934-1.13477c-0.67285,0.71436-1.58301,1.2749-2.73145,1.2749
			c-1.66699,0-2.60547-1.09277-2.60547-3.06787v-4.16016h1.45605v3.51611c0,1.70898,0.68652,2.3252,1.70898,2.3252
			c1.45703,0,2.15723-1.20459,2.15723-2.31152v-3.52979H414.52539z"/>
		<path class="st4" d="M415.92188,447.61063c0-2.03125,1.59668-3.68408,3.7959-3.68408c2.1709,0,3.75391,1.65283,3.75391,3.68408
			s-1.58301,3.68408-3.75391,3.68408C417.51855,451.29471,415.92188,449.64188,415.92188,447.61063z M422.01465,447.61063
			c0-1.26074-0.98047-2.29736-2.29688-2.29736c-1.34473,0-2.33887,1.03662-2.33887,2.29736s0.99414,2.29736,2.33887,2.29736
			C421.03418,449.90799,422.01465,448.87137,422.01465,447.61063z"/>
		<path class="st4" d="M431.80078,446.99442v4.16016h-1.45605v-3.51611c0-1.7085-0.68652-2.3252-1.70898-2.3252
			c-1.38672,0-2.08789,1.09277-2.15723,2.14307v3.69824h-1.45703v-7.08789h1.37305l0.06934,1.13477
			c0.67285-0.71436,1.58301-1.2749,2.73145-1.2749C430.8623,443.92654,431.80078,445.01932,431.80078,446.99442z"/>
		<path class="st4" d="M392.77637,463.99442v4.16016h-1.45605v-3.51611c0-1.7085-0.68652-2.3252-1.70898-2.3252
			c-1.38672,0-2.08789,1.09277-2.15723,2.14307v3.69824h-1.45703v-7.08789h1.37305l0.06934,1.13477
			c0.67285-0.71436,1.58301-1.2749,2.73145-1.2749C391.83789,460.92654,392.77637,462.01932,392.77637,463.99442z"/>
		<path class="st4" d="M401.28906,465.05887h-5.63086c0.04199,1.09277,0.85449,1.93311,2.21289,1.93311
			c1.02246,0,1.66699-0.56055,1.96094-1.10645l1.27441,0.14014c-0.2373,0.98047-1.34473,2.26904-3.24902,2.26904
			c-2.15723,0-3.65625-1.61084-3.65625-3.72607c0-1.9751,1.41504-3.64209,3.54395-3.64209
			c2.18555,0,3.54395,1.75098,3.54395,3.76807V465.05887z M395.6582,464.03641h4.16016
			c-0.05664-0.95264-0.84082-1.80713-2.07324-1.80713C396.55469,462.22928,395.71387,463.04178,395.6582,464.03641z"/>
		<path class="st4" d="M409.68848,461.06668v7.08789h-1.37305l-0.06934-1.13477c-0.67285,0.71436-1.58301,1.2749-2.73242,1.2749
			c-1.66602,0-2.60449-1.09277-2.60449-3.06787v-4.16016h1.45605v3.51611c0,1.70898,0.68652,2.3252,1.70898,2.3252
			c1.45703,0,2.15723-1.20459,2.15723-2.31152v-3.52979H409.68848z"/>
		<path class="st4" d="M415.27344,462.4534h-1.51367v5.70117h-1.4707v-5.70117h-1.0498v-1.38672h1.0498v-2.10107h1.4707v2.10107
			h1.51367V462.4534z"/>
		<path class="st4" d="M420.60742,461.23465l-0.22461,1.2749c-0.13965-0.08398-0.41992-0.19629-0.72852-0.19629
			c-1.00781,0-1.49805,1.07861-1.49805,2.49365v3.34766h-1.45703v-7.08789h1.37305l0.06934,0.82666
			c0.44824-0.57471,0.98047-0.9668,1.59766-0.9668C420.15918,460.92654,420.45312,461.095,420.60742,461.23465z"/>
		<path class="st4" d="M421.9209,459.18973c0-0.43408,0.34961-0.78418,0.78418-0.78418s0.78418,0.3501,0.78418,0.78418
			s-0.34961,0.78418-0.78418,0.78418S421.9209,459.62381,421.9209,459.18973z M423.43359,468.15457h-1.45703v-7.08789h1.45703
			V468.15457z"/>
		<path class="st4" d="M432.21387,463.99442v4.16016h-1.45605v-3.51611c0-1.7085-0.68652-2.3252-1.70898-2.3252
			c-1.38672,0-2.08789,1.09277-2.15723,2.14307v3.69824h-1.45703v-7.08789h1.37305l0.06934,1.13477
			c0.67285-0.71436,1.58301-1.2749,2.73145-1.2749C431.27539,460.92654,432.21387,462.01932,432.21387,463.99442z"/>
		<path class="st4" d="M433.63867,464.61063c0-2.03125,1.59668-3.68408,3.7959-3.68408c2.1709,0,3.75391,1.65283,3.75391,3.68408
			s-1.58301,3.68408-3.75391,3.68408C435.23535,468.29471,433.63867,466.64188,433.63867,464.61063z M439.73145,464.61063
			c0-1.26074-0.98047-2.29736-2.29688-2.29736c-1.34473,0-2.33887,1.03662-2.33887,2.29736s0.99414,2.29736,2.33887,2.29736
			C438.75098,466.90799,439.73145,465.87137,439.73145,464.61063z"/>
	</g>
	<g>
		<path class="st4" d="M340.68945,254.86551l-0.72852-0.09814c0.22461,0.37842,0.36426,0.82666,0.36426,1.31689
			c0,1.54102-1.28809,2.66113-2.96973,2.66113c-0.36328,0-0.71387-0.05566-1.02246-0.15381
			c-0.19531,0.09814-0.29395,0.22412-0.29395,0.39209c0,0.3501,0.49023,0.43457,1.27441,0.43457
			c2.18555,0,3.3623,0.95215,3.3623,2.29688c0,1.48486-1.49902,2.29736-3.1377,2.29736s-3.1377-0.8125-3.1377-2.29736
			c0-0.75635,0.39258-1.23242,0.88281-1.54053c-0.37891-0.23828-0.63086-0.56055-0.63086-0.93848
			c0-0.50439,0.40625-0.86865,0.82617-1.06494c-0.6582-0.47607-1.07812-1.21875-1.07812-2.08691
			c0-1.55469,1.28906-2.66162,2.95508-2.66162c0.5332,0,1.02344,0.1123,1.44336,0.30811l1.89062-0.16797V254.86551z
			 M338.93848,256.08426c0-0.84033-0.71387-1.44287-1.58301-1.44287c-0.85449,0-1.56836,0.60254-1.56836,1.44287
			c0,0.82617,0.71387,1.42871,1.56836,1.42871C338.22461,257.51297,338.93848,256.91043,338.93848,256.08426z M336.89355,260.63651
			c-0.08398,0-0.18164,0-0.28027-0.01367c-0.37793,0.18213-0.82617,0.58838-0.82617,1.06445
			c0,0.7002,0.7002,1.10645,1.75098,1.10645s1.75098-0.3501,1.75098-1.05029
			C339.28906,260.93094,338.35059,260.63651,336.89355,260.63651z"/>
		<path class="st4" d="M343.80957,260.65067h-1.45703v-10.50586h1.45703V260.65067z"/>
		<path class="st4" d="M352.49121,253.56277v7.08789h-1.37305l-0.06934-1.13477c-0.67285,0.71436-1.58301,1.2749-2.73145,1.2749
			c-1.66699,0-2.60547-1.09277-2.60547-3.06787v-4.16016h1.45605v3.51611c0,1.70898,0.68652,2.3252,1.70898,2.3252
			c1.45703,0,2.15723-1.20459,2.15723-2.31152v-3.52979H352.49121z"/>
		<path class="st4" d="M353.8877,257.10672c0-2.03125,1.59668-3.68408,3.7959-3.68408c2.1709,0,3.75391,1.65283,3.75391,3.68408
			s-1.58301,3.68408-3.75391,3.68408C355.48438,260.7908,353.8877,259.13797,353.8877,257.10672z M359.98047,257.10672
			c0-1.26074-0.98047-2.29736-2.29688-2.29736c-1.34473,0-2.33887,1.03662-2.33887,2.29736s0.99414,2.29736,2.33887,2.29736
			C359,259.40408,359.98047,258.36746,359.98047,257.10672z"/>
		<path class="st4" d="M369.76758,256.49051v4.16016h-1.45605v-3.51611c0-1.7085-0.68652-2.3252-1.70898-2.3252
			c-1.38672,0-2.08789,1.09277-2.15723,2.14307v3.69824h-1.45703v-7.08789h1.37305l0.06934,1.13477
			c0.67285-0.71436,1.58301-1.2749,2.73145-1.2749C368.8291,253.42264,369.76758,254.51541,369.76758,256.49051z"/>
	</g>
	<g>
		<g>
			<path class="st4" d="M359.32422,224.17068l-1.63965-0.2207c0.50391,0.85107,0.81934,1.85986,0.81934,2.96338
				c0,3.46777-2.90039,5.98926-6.68262,5.98926c-0.82031,0-1.6084-0.12598-2.30176-0.34668
				c-0.44141,0.2207-0.66211,0.50439-0.66211,0.88281c0,0.78809,1.10352,0.97754,2.86914,0.97754
				c4.91797,0,7.56543,2.14355,7.56543,5.16992c0,3.34131-3.37305,5.16992-7.06152,5.16992s-7.06152-1.82861-7.06152-5.16992
				c0-1.70264,0.88281-2.77441,1.98633-3.46777c-0.85156-0.53613-1.41895-1.26123-1.41895-2.1123
				c0-1.13477,0.91504-1.95459,1.86035-2.396c-1.48145-1.07178-2.42773-2.74268-2.42773-4.69678
				c0-3.49951,2.90039-5.98975,6.65234-5.98975c1.19727,0,2.30078,0.25195,3.24707,0.69336l4.25586-0.37842V224.17068z
				 M355.38281,226.91336c0-1.8916-1.60742-3.24707-3.56152-3.24707c-1.92383,0-3.53125,1.35547-3.53125,3.24707
				c0,1.85986,1.60742,3.21533,3.53125,3.21533C353.77539,230.12869,355.38281,228.77322,355.38281,226.91336z M350.78027,237.15848
				c-0.18848,0-0.40918,0-0.62988-0.03125c-0.85156,0.40967-1.86035,1.32422-1.86035,2.396
				c0,1.57617,1.57617,2.49023,3.94043,2.49023s3.94043-0.78809,3.94043-2.36426
				C356.1709,237.82059,354.05957,237.15848,350.78027,237.15848z"/>
		</g>
	</g>
	<g>
		<path class="st4" d="M179.55957,255.78983h1.37305l0.08398,1.45703c0.41992-0.89648,1.42871-1.59717,2.70312-1.59717
			c2.03125,0,3.55762,1.65283,3.55762,3.68408s-1.52637,3.68408-3.55762,3.68408c-1.27441,0-2.2832-0.7002-2.70312-1.61084v4.69238
			h-1.45703V255.78983z M183.48145,261.63113c1.33105,0,2.3252-1.03662,2.3252-2.29736s-0.99414-2.29736-2.3252-2.29736
			c-1.33008,0-2.29688,1.03662-2.29688,2.29736S182.15137,261.63113,183.48145,261.63113z"/>
		<path class="st4" d="M195.52344,258.71756v4.16016h-1.45605v-3.51611c0-1.7085-0.68652-2.3252-1.70898-2.3252
			c-1.38672,0-2.08789,1.09277-2.15723,2.14355v3.69775h-1.45703v-10.50586h1.45703v4.53857
			c0.67188-0.71436,1.58301-1.26074,2.7168-1.26074C194.58496,255.64969,195.52344,256.74246,195.52344,258.71756z"/>
		<path class="st4" d="M196.94727,259.33377c0-2.03125,1.59668-3.68408,3.7959-3.68408c2.1709,0,3.75391,1.65283,3.75391,3.68408
			s-1.58301,3.68408-3.75391,3.68408C198.54395,263.01785,196.94727,261.36502,196.94727,259.33377z M203.04004,259.33377
			c0-1.26074-0.98047-2.29736-2.29688-2.29736c-1.34473,0-2.33887,1.03662-2.33887,2.29736s0.99414,2.29736,2.33887,2.29736
			C202.05957,261.63113,203.04004,260.59451,203.04004,259.33377z"/>
		<path class="st4" d="M209.66211,257.17654h-1.5127v5.70117h-1.47168v-5.70117h-1.0498v-1.38672h1.0498v-2.10107h1.47168v2.10107
			h1.5127V257.17654z"/>
		<path class="st4" d="M210.58496,259.33377c0-2.03125,1.59668-3.68408,3.7959-3.68408c2.1709,0,3.75391,1.65283,3.75391,3.68408
			s-1.58301,3.68408-3.75391,3.68408C212.18164,263.01785,210.58496,261.36502,210.58496,259.33377z M216.67773,259.33377
			c0-1.26074-0.98047-2.29736-2.29688-2.29736c-1.34473,0-2.33887,1.03662-2.33887,2.29736s0.99414,2.29736,2.33887,2.29736
			C215.69727,261.63113,216.67773,260.59451,216.67773,259.33377z"/>
		<path class="st4" d="M226.46484,258.71756v4.16016h-1.45605v-3.51611c0-1.7085-0.68652-2.3252-1.70898-2.3252
			c-1.38672,0-2.08789,1.09277-2.15723,2.14355v3.69775h-1.45703v-7.08789h1.37305l0.06934,1.13477
			c0.67285-0.71436,1.58301-1.2749,2.73145-1.2749C225.52637,255.64969,226.46484,256.74246,226.46484,258.71756z"/>
	</g>
	<g>
		<path class="st4" d="M201.0293,247.03152c0.11816-3.62207,0.19727-7.40137-0.70801-11.18066
			c-1.41797-6.29883-4.80371-12.71582-6.73242-15.66846h3.89746c1.73242,2.59863,4.60645,8.97607,5.78711,14.8418h0.15723
			c1.73242-3.18848,4.48828-8.81836,4.48828-13.50293c0-0.59082-0.03906-0.98438-0.03906-1.33887h3.2666
			c0.0791,0.35449,0.11816,0.82715,0.11816,1.29932c0,4.88184-3.07031,11.18066-6.73145,16.73145
			c-0.23633,0.31494-0.23633,0.59033-0.23633,0.94482c0.11816,2.24365,0.11816,5.19629,0.11816,7.87354H201.0293z"/>
	</g>
	<g>
		<path class="st4" d="M323.72949,360.67215l-5.77051,7.17188h5.77051v1.38672h-7.67578v-1.38672l5.77148-7.17188h-5.77148v-1.38672
			h7.67578V360.67215z"/>
		<path class="st4" d="M333.83398,369.37088c-1.27441,0-2.29688-0.70068-2.70312-1.61084l-0.07031,1.4707h-1.38672v-10.50586
			h1.45703v4.875c0.40625-0.89648,1.42871-1.59717,2.70312-1.59717c2.03125,0,3.54395,1.65283,3.54395,3.68408
			S335.86523,369.37088,333.83398,369.37088z M333.5957,363.38943c-1.33008,0-2.31055,1.03662-2.31055,2.29736
			s0.98047,2.29736,2.31055,2.29736c1.33105,0,2.3252-1.03662,2.3252-2.29736S334.92676,363.38943,333.5957,363.38943z"/>
		<path class="st4" d="M338.5791,365.6868c0-2.03125,1.59668-3.68408,3.7959-3.68408c2.1709,0,3.75391,1.65283,3.75391,3.68408
			s-1.58301,3.68408-3.75391,3.68408C340.17578,369.37088,338.5791,367.71805,338.5791,365.6868z M344.67188,365.6868
			c0-1.26074-0.98047-2.29736-2.29688-2.29736c-1.34473,0-2.33887,1.03662-2.33887,2.29736s0.99414,2.29736,2.33887,2.29736
			C343.69141,367.98416,344.67188,366.94754,344.67188,365.6868z"/>
		<path class="st4" d="M348.71582,367.17166c0.13965,0.57422,0.72852,0.96631,1.63867,0.96631
			c0.71387,0,1.28906-0.27979,1.28906-0.78418c0-0.67236-0.64453-0.82666-2.10156-1.33057
			c-1.12109-0.36426-2.05957-0.91064-2.05957-2.05908c0-1.21875,1.2334-1.96143,2.50781-1.96143
			c1.63867,0,2.64746,0.9248,2.71777,2.0874h-1.4707c-0.05664-0.58838-0.64453-0.86865-1.19141-0.86865
			c-0.51758,0-1.0918,0.25195-1.0918,0.74268c0,0.56006,0.60156,0.68604,2.05859,1.23242
			c1.44238,0.50439,2.10156,1.20459,2.10156,2.18506c0,1.26074-1.21875,1.98926-2.78809,1.98926
			c-1.70898,0-2.92773-0.74268-3.06738-2.19922H348.71582z"/>
		<path class="st4" d="M354.39941,365.6868c0-2.03125,1.59668-3.68408,3.7959-3.68408c2.1709,0,3.75391,1.65283,3.75391,3.68408
			s-1.58301,3.68408-3.75391,3.68408C355.99609,369.37088,354.39941,367.71805,354.39941,365.6868z M360.49219,365.6868
			c0-1.26074-0.98047-2.29736-2.29688-2.29736c-1.34473,0-2.33887,1.03662-2.33887,2.29736s0.99414,2.29736,2.33887,2.29736
			C359.51172,367.98416,360.49219,366.94754,360.49219,365.6868z"/>
		<path class="st4" d="M370.27832,365.07059v4.16016h-1.45605v-3.51611c0-1.7085-0.68652-2.3252-1.70898-2.3252
			c-1.38672,0-2.08789,1.09277-2.15723,2.14307v3.69824h-1.45703v-7.08789h1.37305l0.06934,1.13477
			c0.67285-0.71436,1.58301-1.2749,2.73145-1.2749C369.33984,362.00272,370.27832,363.09549,370.27832,365.07059z"/>
	</g>
	<g>
		<g>
			<path class="st4" d="M354.73926,331.03494l-12.9873,16.14062h12.9873v3.12109h-17.27539v-3.12109l12.98828-16.14062h-12.98828
				v-3.12061h17.27539V331.03494z"/>
		</g>
	</g>
	<g>
		<path class="st4" d="M190.90527,359.28543l-3.15137,9.94531h-1.7373l-2.40918-7.57812l-2.39551,7.57812h-1.7373l-3.15137-9.94531
			h1.49902l2.52148,8.02637l2.52148-8.02637h1.49805l2.52148,8.02637l2.52148-8.02637H190.90527z"/>
		<path class="st4" d="M200.86621,369.37088c-1.27441,0-2.29688-0.70068-2.70312-1.61084l-0.07031,1.4707h-1.38672v-10.50586
			h1.45703v4.875c0.40625-0.89648,1.42871-1.59717,2.70312-1.59717c2.03125,0,3.54395,1.65283,3.54395,3.68408
			S202.89746,369.37088,200.86621,369.37088z M200.62793,363.38943c-1.33008,0-2.31055,1.03662-2.31055,2.29736
			s0.98047,2.29736,2.31055,2.29736c1.33105,0,2.3252-1.03662,2.3252-2.29736S201.95898,363.38943,200.62793,363.38943z"/>
		<path class="st4" d="M205.61035,365.6868c0-2.03125,1.59668-3.68408,3.7959-3.68408c2.1709,0,3.75391,1.65283,3.75391,3.68408
			s-1.58301,3.68408-3.75391,3.68408C207.20703,369.37088,205.61035,367.71805,205.61035,365.6868z M211.70312,365.6868
			c0-1.26074-0.98047-2.29736-2.29688-2.29736c-1.34473,0-2.33887,1.03662-2.33887,2.29736s0.99414,2.29736,2.33887,2.29736
			C210.72266,367.98416,211.70312,366.94754,211.70312,365.6868z"/>
		<path class="st4" d="M215.74805,367.17166c0.13965,0.57422,0.72852,0.96631,1.63867,0.96631
			c0.71387,0,1.28906-0.27979,1.28906-0.78418c0-0.67236-0.64453-0.82666-2.10156-1.33057
			c-1.12109-0.36426-2.05957-0.91064-2.05957-2.05908c0-1.21875,1.2334-1.96143,2.50781-1.96143
			c1.63867,0,2.64746,0.9248,2.71777,2.0874h-1.4707c-0.05664-0.58838-0.64453-0.86865-1.19141-0.86865
			c-0.51758,0-1.0918,0.25195-1.0918,0.74268c0,0.56006,0.60156,0.68604,2.05859,1.23242
			c1.44238,0.50439,2.10156,1.20459,2.10156,2.18506c0,1.26074-1.21875,1.98926-2.78809,1.98926
			c-1.70898,0-2.92773-0.74268-3.06738-2.19922H215.74805z"/>
		<path class="st4" d="M221.43164,365.6868c0-2.03125,1.59668-3.68408,3.7959-3.68408c2.1709,0,3.75391,1.65283,3.75391,3.68408
			s-1.58301,3.68408-3.75391,3.68408C223.02832,369.37088,221.43164,367.71805,221.43164,365.6868z M227.52441,365.6868
			c0-1.26074-0.98047-2.29736-2.29688-2.29736c-1.34473,0-2.33887,1.03662-2.33887,2.29736s0.99414,2.29736,2.33887,2.29736
			C226.54395,367.98416,227.52441,366.94754,227.52441,365.6868z"/>
		<path class="st4" d="M237.31055,365.07059v4.16016h-1.45605v-3.51611c0-1.7085-0.68652-2.3252-1.70898-2.3252
			c-1.38672,0-2.08789,1.09277-2.15723,2.14307v3.69824h-1.45703v-7.08789h1.37305l0.06934,1.13477
			c0.67285-0.71436,1.58301-1.2749,2.73145-1.2749C236.37207,362.00272,237.31055,363.09549,237.31055,365.07059z"/>
	</g>
	<g>
		<g>
			<path class="st4" d="M222.85498,327.91434l-7.09277,22.38232h-3.90918l-5.42188-17.05469l-5.39062,17.05469h-3.90918
				l-7.09277-22.38232h3.37305l5.67383,18.06348l5.6748-18.06348h3.37305l5.6748,18.06348l5.67383-18.06348H222.85498z"/>
		</g>
	</g>
	<g>
		<path class="st4" d="M303.23242,484.24344v2.75928h3.10938v1.38672h-3.10938v3.02588h3.99121v1.38672h-5.46289v-9.94531h5.46289
			v1.38672H303.23242z"/>
		<path class="st4" d="M310.52637,492.80203h-1.45703v-10.50586h1.45703V492.80203z"/>
		<path class="st4" d="M319.22363,489.70633h-5.63086c0.04199,1.09277,0.85449,1.93311,2.21289,1.93311
			c1.02246,0,1.66699-0.56055,1.96094-1.10645l1.27441,0.14014c-0.2373,0.98047-1.34473,2.26904-3.24902,2.26904
			c-2.15723,0-3.65625-1.61084-3.65625-3.72607c0-1.9751,1.41504-3.64209,3.54395-3.64209
			c2.18555,0,3.54395,1.75098,3.54395,3.76807V489.70633z M313.59277,488.68387h4.16016
			c-0.05664-0.95264-0.84082-1.80713-2.07324-1.80713C314.48926,486.87674,313.64844,487.68924,313.59277,488.68387z"/>
		<path class="st4" d="M324.44336,486.96072c-1.2041,0-2.33887,0.95264-2.33887,2.29736s1.13477,2.29736,2.33887,2.29736
			c0.72852,0,1.3584-0.26611,1.91895-0.8125v1.41455c-0.50391,0.47656-1.23242,0.78467-2.14258,0.78467
			c-2.08789,0-3.65625-1.68115-3.65625-3.68408c0-1.98926,1.56836-3.68408,3.65625-3.68408
			c0.91016,0,1.63867,0.30811,2.14258,0.78467v1.40039C325.80176,487.21317,325.17188,486.96072,324.44336,486.96072z"/>
		<path class="st4" d="M331.7373,487.10086h-1.51367v5.70117h-1.4707v-5.70117h-1.0498v-1.38672h1.0498v-2.10107h1.4707v2.10107
			h1.51367V487.10086z"/>
		<path class="st4" d="M337.07129,485.88211l-0.22461,1.2749c-0.13965-0.08398-0.41992-0.19629-0.72852-0.19629
			c-1.00781,0-1.49805,1.07861-1.49805,2.49365v3.34766h-1.45703v-7.08789h1.37305l0.06934,0.82666
			c0.44824-0.57471,0.98047-0.9668,1.59766-0.9668C336.62305,485.57401,336.91699,485.74246,337.07129,485.88211z"/>
		<path class="st4" d="M337.72754,489.25809c0-2.03125,1.59668-3.68408,3.7959-3.68408c2.1709,0,3.75391,1.65283,3.75391,3.68408
			s-1.58301,3.68408-3.75391,3.68408C339.32422,492.94217,337.72754,491.28934,337.72754,489.25809z M343.82031,489.25809
			c0-1.26074-0.98047-2.29736-2.29688-2.29736c-1.34473,0-2.33887,1.03662-2.33887,2.29736s0.99414,2.29736,2.33887,2.29736
			C342.83984,491.55545,343.82031,490.51883,343.82031,489.25809z"/>
		<path class="st4" d="M353.60645,488.64188v4.16016h-1.45605v-3.51611c0-1.7085-0.68652-2.3252-1.70898-2.3252
			c-1.38672,0-2.08789,1.09277-2.15723,2.14307v3.69824h-1.45703v-7.08789h1.37305l0.06934,1.13477
			c0.67285-0.71436,1.58301-1.2749,2.73145-1.2749C352.66797,485.57401,353.60645,486.66678,353.60645,488.64188z"/>
		<path class="st4" d="M306.95215,505.64188v4.16016h-1.45605v-3.51611c0-1.7085-0.68652-2.3252-1.70898-2.3252
			c-1.38672,0-2.08789,1.09277-2.15723,2.14307v3.69824h-1.45703v-7.08789h1.37305l0.06934,1.13477
			c0.67285-0.71436,1.58301-1.2749,2.73145-1.2749C306.01367,502.57401,306.95215,503.66678,306.95215,505.64188z"/>
		<path class="st4" d="M315.46484,506.70633h-5.63086c0.04199,1.09277,0.85449,1.93311,2.21289,1.93311
			c1.02246,0,1.66699-0.56055,1.96094-1.10645l1.27441,0.14014c-0.2373,0.98047-1.34473,2.26904-3.24902,2.26904
			c-2.15723,0-3.65625-1.61084-3.65625-3.72607c0-1.9751,1.41504-3.64209,3.54395-3.64209
			c2.18555,0,3.54395,1.75098,3.54395,3.76807V506.70633z M309.83398,505.68387h4.16016
			c-0.05664-0.95264-0.84082-1.80713-2.07324-1.80713C310.73047,503.87674,309.88965,504.68924,309.83398,505.68387z"/>
		<path class="st4" d="M323.86426,502.71414v7.08789h-1.37305l-0.06934-1.13477c-0.67285,0.71436-1.58301,1.2749-2.73145,1.2749
			c-1.66699,0-2.60547-1.09277-2.60547-3.06787v-4.16016h1.45605v3.51611c0,1.70898,0.68652,2.3252,1.70898,2.3252
			c1.45703,0,2.15723-1.20459,2.15723-2.31152v-3.52979H323.86426z"/>
		<path class="st4" d="M329.44922,504.10086h-1.5127v5.70117h-1.47168v-5.70117h-1.0498v-1.38672h1.0498v-2.10107h1.47168v2.10107
			h1.5127V504.10086z"/>
		<path class="st4" d="M334.7832,502.88211l-0.22461,1.2749c-0.13965-0.08398-0.41992-0.19629-0.72852-0.19629
			c-1.00781,0-1.49805,1.07861-1.49805,2.49365v3.34766H330.875v-7.08789h1.37305l0.06934,0.82666
			c0.44824-0.57471,0.98047-0.9668,1.59766-0.9668C334.33496,502.57401,334.62891,502.74246,334.7832,502.88211z"/>
		<path class="st4" d="M336.09668,500.83719c0-0.43408,0.34961-0.78418,0.78418-0.78418s0.78418,0.3501,0.78418,0.78418
			s-0.34961,0.78418-0.78418,0.78418S336.09668,501.27127,336.09668,500.83719z M337.60938,509.80203h-1.45703v-7.08789h1.45703
			V509.80203z"/>
		<path class="st4" d="M346.38965,505.64188v4.16016h-1.45605v-3.51611c0-1.7085-0.68652-2.3252-1.70898-2.3252
			c-1.38672,0-2.08789,1.09277-2.15723,2.14307v3.69824h-1.45703v-7.08789h1.37305l0.06934,1.13477
			c0.67285-0.71436,1.58301-1.2749,2.73145-1.2749C345.45117,502.57401,346.38965,503.66678,346.38965,505.64188z"/>
		<path class="st4" d="M347.81445,506.25809c0-2.03125,1.59668-3.68408,3.7959-3.68408c2.1709,0,3.75391,1.65283,3.75391,3.68408
			s-1.58301,3.68408-3.75391,3.68408C349.41113,509.94217,347.81445,508.28934,347.81445,506.25809z M353.90723,506.25809
			c0-1.26074-0.98047-2.29736-2.29688-2.29736c-1.34473,0-2.33887,1.03662-2.33887,2.29736s0.99414,2.29736,2.33887,2.29736
			C352.92676,508.55545,353.90723,507.51883,353.90723,506.25809z"/>
	</g>
	<g>
		<path class="st4" d="M460.58594,345.74637h-2.39453v8.55859h-1.45703v-8.55859h-2.39551v-1.38672h6.24707V345.74637z"/>
		<path class="st4" d="M464.2666,347.07742c1.27539,0,2.2832,0.7002,2.68945,1.59668l0.08398-1.45703h1.38672v7.08789h-1.38672
			l-0.08398-1.4707c-0.40625,0.91016-1.41406,1.61035-2.68945,1.61035c-2.03125,0-3.55762-1.65234-3.55762-3.68359
			S462.23535,347.07742,464.2666,347.07742z M464.50488,353.05789c1.31641,0,2.29688-1.03613,2.29688-2.29688
			s-0.98047-2.29688-2.29688-2.29688c-1.34473,0-2.33887,1.03613-2.33887,2.29688S463.16016,353.05789,464.50488,353.05789z"/>
		<path class="st4" d="M477.03711,347.21707v7.08789h-1.37305l-0.06934-1.13477c-0.67285,0.71484-1.58301,1.27441-2.73145,1.27441
			c-1.66699,0-2.60547-1.0918-2.60547-3.06738v-4.16016h1.45605v3.51562c0,1.70898,0.68652,2.3252,1.70898,2.3252
			c1.45703,0,2.15723-1.2041,2.15723-2.31055v-3.53027H477.03711z"/>
		<path class="st4" d="M445.01172,367.14481v4.16016h-1.45605v-3.51562c0-1.70898-0.68652-2.3252-1.70898-2.3252
			c-1.38672,0-2.08789,1.0918-2.15723,2.14258v3.69824h-1.45703v-7.08789h1.37305l0.06934,1.13477
			c0.67285-0.71484,1.58301-1.27441,2.73145-1.27441C444.07324,364.07742,445.01172,365.16922,445.01172,367.14481z"/>
		<path class="st4" d="M453.52441,368.20926h-5.63086c0.04199,1.09277,0.85449,1.93262,2.21289,1.93262
			c1.02246,0,1.66699-0.55957,1.96094-1.10645l1.27441,0.14062c-0.2373,0.98047-1.34473,2.26855-3.24902,2.26855
			c-2.15723,0-3.65625-1.61035-3.65625-3.72559c0-1.97461,1.41504-3.6416,3.54395-3.6416c2.18555,0,3.54395,1.75098,3.54395,3.76758
			V368.20926z M447.89355,367.1868h4.16016c-0.05664-0.95215-0.84082-1.80664-2.07324-1.80664
			C448.79004,365.38016,447.94922,366.19266,447.89355,367.1868z"/>
		<path class="st4" d="M461.92383,364.21707v7.08789h-1.37305l-0.06934-1.13477c-0.67285,0.71484-1.58301,1.27441-2.73145,1.27441
			c-1.66699,0-2.60547-1.0918-2.60547-3.06738v-4.16016h1.45605v3.51562c0,1.70898,0.68652,2.3252,1.70898,2.3252
			c1.45703,0,2.15723-1.2041,2.15723-2.31055v-3.53027H461.92383z"/>
		<path class="st4" d="M467.50879,365.60379h-1.5127v5.70117h-1.47168v-5.70117h-1.0498v-1.38672h1.0498v-2.10156h1.47168v2.10156
			h1.5127V365.60379z"/>
		<path class="st4" d="M472.84277,364.38504l-0.22461,1.27441c-0.13965-0.08398-0.41992-0.19531-0.72852-0.19531
			c-1.00781,0-1.49805,1.07812-1.49805,2.49316v3.34766h-1.45703v-7.08789h1.37305l0.06934,0.82617
			c0.44824-0.57422,0.98047-0.96582,1.59766-0.96582C472.39453,364.07742,472.68848,364.24539,472.84277,364.38504z"/>
		<path class="st4" d="M474.15625,362.34012c0-0.43457,0.34961-0.78418,0.78418-0.78418s0.78418,0.34961,0.78418,0.78418
			s-0.34961,0.78418-0.78418,0.78418S474.15625,362.77469,474.15625,362.34012z M475.66895,371.30496h-1.45703v-7.08789h1.45703
			V371.30496z"/>
		<path class="st4" d="M484.44922,367.14481v4.16016h-1.45605v-3.51562c0-1.70898-0.68652-2.3252-1.70898-2.3252
			c-1.38672,0-2.08789,1.0918-2.15723,2.14258v3.69824h-1.45703v-7.08789h1.37305l0.06934,1.13477
			c0.67285-0.71484,1.58301-1.27441,2.73145-1.27441C483.51074,364.07742,484.44922,365.16922,484.44922,367.14481z"/>
		<path class="st4" d="M485.87402,367.76102c0-2.03125,1.59668-3.68359,3.7959-3.68359c2.1709,0,3.75391,1.65234,3.75391,3.68359
			s-1.58301,3.68359-3.75391,3.68359C487.4707,371.44461,485.87402,369.79227,485.87402,367.76102z M491.9668,367.76102
			c0-1.26074-0.98047-2.29688-2.29688-2.29688c-1.34473,0-2.33887,1.03613-2.33887,2.29688s0.99414,2.29688,2.33887,2.29688
			C490.98633,370.05789,491.9668,369.02176,491.9668,367.76102z"/>
	</g>
	<g>
		<path class="st4" d="M457.08887,319.34549l3.58203,10.47559c0.61621,1.65625,1.07812,3.23535,1.61816,4.85303h0.11523
			c1.54004-3.00439,4.81445-9.28174,4.81445-13.59521c0-0.61621,0-1.19385-0.03906-1.7334h3.19629
			c0.03906,0.38525,0.11621,0.88623,0.11621,1.38672c0,5.27637-3.58203,11.59229-6.9707,17.25391h-3.19727l-6.81641-18.64062
			H457.08887z"/>
		<path class="st4" d="M477.83496,338.03983c-0.17773,0.08887-0.53418,0.14258-0.85547,0.14258
			c-1.38965,0-1.99609-0.85547-1.99609-2.67383v-4.91895h-0.94434c-0.90918,0-1.37207,0.07129-1.74609,0.14258l-0.21484-0.90869
			c0.30371-0.21387,0.94531-0.46338,2.35352-0.46338h4.97168l-0.19629,1.22949h-2.67285v4.88379
			c0,1.17578,0.46387,1.46094,0.99805,1.46094c0.14258,0,0.26758,0,0.37402-0.01758L477.83496,338.03983z"/>
	</g>
	<g>
		<path class="st4" d="M399.18066,411.16141l3.58203,10.47559c0.61621,1.65625,1.07812,3.23535,1.61816,4.85303h0.11523
			c1.54004-3.00439,4.81445-9.28174,4.81445-13.59521c0-0.61621,0-1.19385-0.03906-1.7334h3.19629
			c0.03906,0.38525,0.11621,0.88623,0.11621,1.38672c0,5.27637-3.58203,11.59229-6.9707,17.25391h-3.19727l-6.81641-18.64062
			H399.18066z"/>
		<path class="st4" d="M421.40625,428.46512c-0.35645,0.67773-1.19434,1.49707-2.47754,1.49707
			c-0.78418,0-1.51465-0.28516-1.88867-0.94434v1.06934c0,0.94434,0.01758,2.53076,0.19629,3.24365h-1.4082
			c-0.17871-0.53467-0.25-1.80029-0.25-3.17236v-8.98242h1.55078v5.09717c0,1.33643,0.57031,2.44189,1.94238,2.44189
			c1.03418,0,1.78223-0.74902,2.06738-1.44385c0.08984-0.23193,0.14258-0.51709,0.14258-0.80225v-5.29297h1.55078v6.25586
			c0,0.94434,0.19629,1.31836,0.82031,1.35449l-0.125,1.14062c-0.17871,0.05322-0.28516,0.07129-0.53516,0.07129
			c-0.76562,0-1.38965-0.42773-1.53223-1.5332H421.40625z"/>
	</g>
	<g>
		<path class="st4" d="M318.90625,457.73026l3.58203,10.47559c0.61523,1.65625,1.07812,3.23535,1.61719,4.85303h0.11523
			c1.54102-3.00439,4.81445-9.28174,4.81445-13.59521c0-0.61621,0-1.19385-0.03906-1.7334h3.19727
			c0.03906,0.38525,0.11523,0.88623,0.11523,1.38672c0,5.27637-3.58203,11.59229-6.9707,17.25391h-3.19727l-6.81641-18.64062
			H318.90625z"/>
		<path class="st4" d="M336.17578,472.34305c0.03711,2.12061,1.39062,2.99414,2.95898,2.99414
			c1.12305,0,1.80078-0.1958,2.38867-0.4458l0.26758,1.12305c-0.55273,0.24951-1.49805,0.53467-2.86914,0.53467
			c-2.65625,0-4.24219-1.74658-4.24219-4.34863s1.5332-4.65186,4.04492-4.65186c2.81641,0,3.56445,2.47754,3.56445,4.06348
			c0,0.32129-0.03516,0.57031-0.05273,0.73096H336.17578z M340.77539,471.22049c0.01758-0.99805-0.41016-2.54883-2.17578-2.54883
			c-1.58594,0-2.28125,1.46143-2.4043,2.54883H340.77539z"/>
	</g>
	<g>
		<path class="st4" d="M269.18066,293.92117v9.94531h-1.4707v-4.28613h-4.95801v4.28613h-1.47168v-9.94531h1.47168v4.27246h4.95801
			v-4.27246H269.18066z"/>
		<path class="st4" d="M270.8291,294.90164c0-0.43408,0.34961-0.78418,0.78418-0.78418s0.78418,0.3501,0.78418,0.78418
			s-0.34961,0.78418-0.78418,0.78418S270.8291,295.33572,270.8291,294.90164z M272.3418,303.86649h-1.45703v-7.08789h1.45703
			V303.86649z"/>
		<path class="st4" d="M280.37891,298.08133l-0.72852-0.09814c0.22461,0.37842,0.36426,0.82666,0.36426,1.31689
			c0,1.54102-1.28809,2.66113-2.96973,2.66113c-0.36328,0-0.71387-0.05566-1.02246-0.15381
			c-0.19531,0.09814-0.29395,0.22412-0.29395,0.39209c0,0.3501,0.49023,0.43457,1.27441,0.43457
			c2.18555,0,3.3623,0.95215,3.3623,2.29688c0,1.48486-1.49902,2.29736-3.1377,2.29736s-3.1377-0.8125-3.1377-2.29736
			c0-0.75635,0.39258-1.23242,0.88281-1.54053c-0.37891-0.23828-0.63086-0.56055-0.63086-0.93848
			c0-0.50439,0.40625-0.86865,0.82617-1.06494c-0.6582-0.47607-1.07812-1.21875-1.07812-2.08691
			c0-1.55469,1.28906-2.66162,2.95508-2.66162c0.5332,0,1.02344,0.1123,1.44336,0.30811l1.89062-0.16797V298.08133z
			 M278.62793,299.30008c0-0.84033-0.71387-1.44287-1.58301-1.44287c-0.85449,0-1.56836,0.60254-1.56836,1.44287
			c0,0.82617,0.71387,1.42871,1.56836,1.42871C277.91406,300.72879,278.62793,300.12625,278.62793,299.30008z M276.58301,303.85233
			c-0.08398,0-0.18164,0-0.28027-0.01367c-0.37793,0.18213-0.82617,0.58838-0.82617,1.06445
			c0,0.7002,0.7002,1.10645,1.75098,1.10645s1.75098-0.3501,1.75098-1.05029
			C278.97852,304.14676,278.04004,303.85233,276.58301,303.85233z"/>
		<path class="st4" d="M287.99512,298.08133l-0.72852-0.09814c0.22461,0.37842,0.36426,0.82666,0.36426,1.31689
			c0,1.54102-1.28809,2.66113-2.96973,2.66113c-0.36328,0-0.71387-0.05566-1.02246-0.15381
			c-0.19531,0.09814-0.29395,0.22412-0.29395,0.39209c0,0.3501,0.49023,0.43457,1.27441,0.43457
			c2.18555,0,3.3623,0.95215,3.3623,2.29688c0,1.48486-1.49902,2.29736-3.1377,2.29736s-3.1377-0.8125-3.1377-2.29736
			c0-0.75635,0.39258-1.23242,0.88281-1.54053c-0.37891-0.23828-0.63086-0.56055-0.63086-0.93848
			c0-0.50439,0.40625-0.86865,0.82617-1.06494c-0.6582-0.47607-1.07812-1.21875-1.07812-2.08691
			c0-1.55469,1.28906-2.66162,2.95508-2.66162c0.5332,0,1.02344,0.1123,1.44336,0.30811l1.89062-0.16797V298.08133z
			 M286.24414,299.30008c0-0.84033-0.71387-1.44287-1.58301-1.44287c-0.85352,0-1.56836,0.60254-1.56836,1.44287
			c0,0.82617,0.71484,1.42871,1.56836,1.42871C285.53027,300.72879,286.24414,300.12625,286.24414,299.30008z M284.19922,303.85233
			c-0.08398,0-0.18164,0-0.28027-0.01367c-0.37793,0.18213-0.82617,0.58838-0.82617,1.06445
			c0,0.7002,0.7002,1.10645,1.75098,1.10645s1.75098-0.3501,1.75098-1.05029
			C286.59473,304.14676,285.65625,303.85233,284.19922,303.85233z"/>
		<path class="st4" d="M290.72363,301.8074c0.13965,0.57422,0.72852,0.96631,1.63867,0.96631
			c0.71387,0,1.28906-0.27979,1.28906-0.78418c0-0.67236-0.64453-0.82666-2.10156-1.33057
			c-1.12109-0.36426-2.05957-0.91064-2.05957-2.05908c0-1.21875,1.2334-1.96143,2.50781-1.96143
			c1.63867,0,2.64746,0.9248,2.71777,2.0874h-1.4707c-0.05664-0.58838-0.64453-0.86865-1.19141-0.86865
			c-0.51758,0-1.0918,0.25195-1.0918,0.74268c0,0.56006,0.60156,0.68604,2.05859,1.23242
			c1.44238,0.50439,2.10156,1.20459,2.10156,2.18506c0,1.26074-1.21875,1.98926-2.78809,1.98926
			c-1.70898,0-2.92773-0.74268-3.06738-2.19922H290.72363z"/>
		<path class="st4" d="M262.12305,321.00662c-1.27441,0-2.29688-0.70068-2.70312-1.61084l-0.07031,1.4707h-1.38672v-10.50586
			h1.45703v4.875c0.40625-0.89648,1.42871-1.59717,2.70312-1.59717c2.03125,0,3.54395,1.65283,3.54395,3.68408
			S264.1543,321.00662,262.12305,321.00662z M261.88477,315.02518c-1.33008,0-2.31055,1.03662-2.31055,2.29736
			s0.98047,2.29736,2.31055,2.29736c1.33105,0,2.3252-1.03662,2.3252-2.29736S263.21582,315.02518,261.88477,315.02518z"/>
		<path class="st4" d="M266.86816,317.32254c0-2.03125,1.59668-3.68408,3.7959-3.68408c2.1709,0,3.75391,1.65283,3.75391,3.68408
			s-1.58301,3.68408-3.75391,3.68408C268.46484,321.00662,266.86816,319.35379,266.86816,317.32254z M272.96094,317.32254
			c0-1.26074-0.98047-2.29736-2.29688-2.29736c-1.34473,0-2.33887,1.03662-2.33887,2.29736s0.99414,2.29736,2.33887,2.29736
			C271.98047,319.6199,272.96094,318.58328,272.96094,317.32254z"/>
		<path class="st4" d="M277.00391,318.8074c0.13965,0.57422,0.72852,0.96631,1.63867,0.96631
			c0.71387,0,1.28906-0.27979,1.28906-0.78418c0-0.67236-0.64453-0.82666-2.10156-1.33057
			c-1.12109-0.36426-2.05957-0.91064-2.05957-2.05908c0-1.21875,1.2334-1.96143,2.50781-1.96143
			c1.63867,0,2.64746,0.9248,2.71777,2.0874h-1.4707c-0.05664-0.58838-0.64453-0.86865-1.19141-0.86865
			c-0.51758,0-1.0918,0.25195-1.0918,0.74268c0,0.56006,0.60156,0.68604,2.05859,1.23242
			c1.44238,0.50439,2.10156,1.20459,2.10156,2.18506c0,1.26074-1.21875,1.98926-2.78809,1.98926
			c-1.70898,0-2.92773-0.74268-3.06738-2.19922H277.00391z"/>
		<path class="st4" d="M282.6875,317.32254c0-2.03125,1.59668-3.68408,3.7959-3.68408c2.1709,0,3.75391,1.65283,3.75391,3.68408
			s-1.58301,3.68408-3.75391,3.68408C284.28418,321.00662,282.6875,319.35379,282.6875,317.32254z M288.78027,317.32254
			c0-1.26074-0.98047-2.29736-2.29688-2.29736c-1.34473,0-2.33887,1.03662-2.33887,2.29736s0.99414,2.29736,2.33887,2.29736
			C287.7998,319.6199,288.78027,318.58328,288.78027,317.32254z"/>
		<path class="st4" d="M298.56738,316.70633v4.16016h-1.45605v-3.51611c0-1.7085-0.68652-2.3252-1.70898-2.3252
			c-1.38672,0-2.08789,1.09277-2.15723,2.14307v3.69824h-1.45703v-7.08789h1.37305l0.06934,1.13477
			c0.67285-0.71436,1.58301-1.2749,2.73145-1.2749C297.62891,313.63846,298.56738,314.73123,298.56738,316.70633z"/>
	</g>
	<g>
		<g>
			<path class="st4" d="M286.16113,265.46561v22.38232h-3.30957v-9.64648h-11.16016v9.64648h-3.30957v-22.38232h3.30957v9.61475
				h11.16016v-9.61475H286.16113z"/>
		</g>
	</g>
	<g>
		<path class="st4" d="M150.93848,422.14432c-0.63965,1.21582-2.14355,2.68799-4.44727,2.68799
			c-1.4082,0-2.71973-0.51221-3.3916-1.6958v1.91943c0,1.69629,0.03125,4.54395,0.35156,5.82373h-2.52734
			c-0.32031-0.95996-0.44824-3.23145-0.44824-5.69531V409.0574h2.7832v9.15137c0,2.3999,1.02441,4.38379,3.48828,4.38379
			c1.85547,0,3.2002-1.34424,3.71191-2.5918c0.16016-0.41602,0.25586-0.92822,0.25586-1.43994v-9.50342h2.78418v11.23096
			c0,1.69629,0.35156,2.36816,1.47168,2.43213l-0.22461,2.04785c-0.31934,0.0957-0.51172,0.12793-0.95996,0.12793
			c-1.37598,0-2.49512-0.76807-2.75098-2.75195H150.93848z"/>
	</g>
	<g>
		<g>
			<path class="st93" d="M67.73193,556.85718v1.96973h2.59668v1.27588h-2.59668v3.28955h-1.35254v-7.81104h4.37793v1.27588H67.73193
				z"/>
			<path class="st93" d="M74.07861,556.85718v1.91455h2.37598v1.27588h-2.37598v2.06836H77.104v1.27637H72.7251v-7.81104H77.104
				v1.27588H74.07861z"/>
			<path class="st93" d="M81.94482,560.93921h-1.375v2.45312h-1.35352v-7.81104h2.9375c1.41992,0,2.73926,1.01221,2.73926,2.68408
				c0,1.18848-0.6709,2.04639-1.57324,2.43164l1.65039,2.69531h-1.5293L81.94482,560.93921z M80.56982,559.66284h1.58398
				c0.75977,0,1.38672-0.52832,1.38672-1.39746c0-0.87988-0.62695-1.4082-1.38672-1.4082h-1.58398V559.66284z"/>
			<path class="st93" d="M95.55127,555.5813v7.81104h-1.36426v-5.36865l-2.45312,3.9165h-0.5498l-2.45312-3.9165v5.36865h-1.35352
				v-7.81104h1.35352l2.72852,4.3125l2.72754-4.3125H95.55127z"/>
			<path class="st93" d="M97.8833,555.5813h1.35352v7.81104H97.8833V555.5813z"/>
			<path class="st93" d="M101.31494,559.48657c0-2.22217,1.74902-4.01514,3.97168-4.01514c2.2334,0,3.98242,1.79297,3.98242,4.01514
				c0,2.22266-1.74902,4.01562-3.98242,4.01562C103.06396,563.5022,101.31494,561.70923,101.31494,559.48657z M107.90479,559.48657
				c0-1.49609-1.10059-2.73926-2.61816-2.73926c-1.51855,0-2.61816,1.24316-2.61816,2.73926
				c0,1.49658,1.09961,2.73975,2.61816,2.73975C106.8042,562.22632,107.90479,560.98315,107.90479,559.48657z"/>
			<path class="st93" d="M118.1333,555.5813v7.81104h-1.35254l-3.96094-5.53369v5.53369h-1.35352v-7.81104h1.35352l3.96094,5.53369
				v-5.53369H118.1333z"/>
			<path class="st93" d="M121.59912,561.0271c0.04395,0.81396,0.62695,1.19922,1.28711,1.19922
				c0.72656,0,1.12207-0.37402,1.12207-0.83643c0-0.62695-0.59375-0.92383-1.48535-1.4082
				c-1.57227-0.90186-2.1123-1.46289-2.1123-2.5083c0-1.18799,1.02344-2.00195,2.31055-2.00195
				c1.41992,0,2.35449,1.05566,2.3877,2.38721h-1.35352c-0.0332-0.69336-0.43945-1.11133-1.03418-1.11133
				c-0.5166,0-0.95703,0.30811-0.95703,0.78125c0,0.59424,0.45117,0.8252,1.24316,1.24316
				c1.48535,0.80322,2.35449,1.47412,2.35449,2.66211c0,1.32031-1.11133,2.06836-2.47559,2.06836
				c-1.63867,0-2.60742-1.18799-2.64062-2.4751H121.59912z"/>
			<path class="st93" d="M134.51416,556.85718c-0.56152,0-1.32031,0.24219-1.32031,1.21045v3.71826
				c0,0.95752,0.75879,1.21045,1.32031,1.21045v1.27588c-1.67285,0-2.67383-0.73682-2.67383-2.48633v-3.71826
				c0-1.74951,1.00098-2.48633,2.67383-2.48633V556.85718z"/>
			<path class="st93" d="M145.70068,555.5813v7.81104h-1.36426v-5.36865l-2.45312,3.9165h-0.5498l-2.45312-3.9165v5.36865h-1.35352
				v-7.81104h1.35352l2.72852,4.3125l2.72754-4.3125H145.70068z"/>
			<path class="st93" d="M152.92725,561.67603h-3.125l-0.61621,1.71631h-1.4082l2.81641-7.81104h1.54004l2.81641,7.81104h-1.4082
				L152.92725,561.67603z M152.46436,560.38892l-1.09961-3.04736l-1.10059,3.04736H152.46436z"/>
			<path class="st93" d="M160.82568,556.85718h-1.84863v6.53516h-1.35352v-6.53516h-1.84766v-1.27588h5.0498V556.85718z"/>
			<path class="st93" d="M167.60107,556.85718h-1.84863v6.53516h-1.35352v-6.53516h-1.84766v-1.27588h5.0498V556.85718z"/>
			<path class="st93" d="M170.85693,556.85718v1.91455h2.37598v1.27588h-2.37598v2.06836h3.02539v1.27637h-4.37891v-7.81104h4.37891
				v1.27588H170.85693z"/>
			<path class="st93" d="M178.72119,560.93921h-1.375v2.45312h-1.35352v-7.81104h2.9375c1.41992,0,2.73926,1.01221,2.73926,2.68408
				c0,1.18848-0.6709,2.04639-1.57324,2.43164l1.65039,2.69531h-1.5293L178.72119,560.93921z M177.34619,559.66284h1.58398
				c0.75977,0,1.38672-0.52832,1.38672-1.39746c0-0.87988-0.62695-1.4082-1.38672-1.4082h-1.58398V559.66284z"/>
			<path class="st93" d="M186.87158,558.06763v3.71826c0,1.74951-1.00098,2.48633-2.67285,2.48633v-1.27588
				c0.56055,0,1.31934-0.25293,1.31934-1.21045v-3.71826c0-0.96826-0.75879-1.21045-1.31934-1.21045v-1.27588
				C185.87061,555.5813,186.87158,556.31812,186.87158,558.06763z"/>
		</g>
	</g>
	<g>
		<g>
			<path class="st118" d="M72.55566,583.48462l-1.05664-1.06689c-0.61621,0.40723-1.36426,0.64893-2.17773,0.64893
				c-2.2334,0-3.96094-1.8042-3.96094-4.01562c0-2.21094,1.72754-4.01562,3.96094-4.01562
				c2.22168,0,3.95996,1.80469,3.95996,4.01562c0,1.00146-0.36328,1.91455-0.94629,2.61865l1.0127,1.02295L72.55566,583.48462z
				 M70.70703,581.6145l-1.07812-1.1001l0.78125-0.78125l1.12207,1.1333c0.37402-0.50586,0.59375-1.1333,0.59375-1.81543
				c0-1.59521-1.19922-2.92627-2.80469-2.92627c-1.61816,0-2.81641,1.33105-2.81641,2.92627s1.19824,2.92676,2.81641,2.92676
				C69.82715,581.97778,70.2998,581.84546,70.70703,581.6145z"/>
			<path class="st118" d="M78.4502,583.06665c-1.90332,0-3.09082-1.05615-3.09082-3.38818v-4.53271h1.15527v4.53271
				c0,1.68311,0.73633,2.29932,1.93555,2.29932s1.93652-0.61621,1.93652-2.29932v-4.53271h1.14453v4.53271
				C81.53125,582.0105,80.34277,583.06665,78.4502,583.06665z"/>
			<path class="st118" d="M88.10938,581.13062H84.875l-0.66016,1.82617h-1.18848l2.81641-7.81104h1.29883l2.81641,7.81104h-1.18848
				L88.10938,581.13062z M87.72461,580.04126l-1.23242-3.39941l-1.22168,3.39941H87.72461z"/>
			<path class="st118" d="M94.52148,580.42651h-1.54004v2.53027h-1.15527v-7.81104h2.86035c1.375,0,2.65137,1.00098,2.65137,2.64014
				c0,1.22119-0.7041,2.09033-1.63965,2.45361l1.70508,2.71729h-1.29785L94.52148,580.42651z M92.98145,579.33716h1.70508
				c0.81348,0,1.50684-0.58301,1.50684-1.55127c0-0.979-0.69336-1.55127-1.50684-1.55127h-1.70508V579.33716z"/>
			<path class="st118" d="M102.49707,578.74341l3.13574,4.21338h-1.35352l-2.53027-3.35547l-0.87988,0.99023v2.36523h-1.14453
				v-7.81104h1.14453v3.75146l3.28906-3.75146h1.47461L102.49707,578.74341z"/>
			<path class="st118" d="M108.21777,580.69067c0.05469,0.87988,0.71484,1.28711,1.42969,1.28711
				c0.81445,0,1.27637-0.41797,1.27637-0.97949c0-0.71484-0.6709-1.06689-1.58398-1.54004
				c-1.46289-0.8252-2.10156-1.36426-2.10156-2.46436c0-1.15527,1.00098-1.9585,2.2666-1.9585
				c1.35352,0,2.25488,1.01221,2.2998,2.2666h-1.14453c-0.04395-0.71533-0.50586-1.17725-1.15527-1.17725
				c-0.61621,0-1.12207,0.36328-1.12207,0.91309c0,0.7041,0.53906,0.95703,1.36426,1.38623
				c1.41895,0.74805,2.33203,1.4082,2.33203,2.61865c0,1.27588-1.07812,2.02393-2.43164,2.02393
				c-1.54004,0-2.53027-1.08887-2.57422-2.37598H108.21777z"/>
		</g>
	</g>
	<g>
		<g>
			<path class="st79" d="M156.8877,582.43237v1.08936h-4.33496v-7.81104h1.14453v6.72168H156.8877z"/>
			<path class="st79" d="M160.08789,576.79956v2.16748h2.44238v1.08936h-2.44238v2.37598h3.13477v1.08936h-4.29004v-7.81104h4.29004
				v1.08887H160.08789z"/>
			<path class="st79" d="M170.93457,578.32886c0,1.68359-1.28711,2.60742-2.80566,2.60742h-1.55078v2.58545h-1.15527v-7.81104
				h2.70605C169.64746,575.71069,170.93457,576.63452,170.93457,578.32886z M169.79004,578.32886
				c0-1.02295-0.7041-1.5293-1.66113-1.5293h-1.55078v3.05859h1.55078C169.08594,579.85815,169.79004,579.35229,169.79004,578.32886
				z"/>
			<path class="st79" d="M177.37988,576.79956h-1.88086v6.72217h-1.14453v-6.72217h-1.88086v-1.08887h4.90625V576.79956z"/>
			<path class="st79" d="M178.74414,579.61597c0-2.21094,1.72754-4.01562,3.96094-4.01562
				c2.22168,0,3.95996,1.80469,3.95996,4.01562c0,2.21143-1.73828,4.01562-3.95996,4.01562
				C180.47168,583.63159,178.74414,581.82739,178.74414,579.61597z M185.50977,579.61597c0-1.59521-1.19922-2.92627-2.80469-2.92627
				c-1.61816,0-2.81641,1.33105-2.81641,2.92627s1.19824,2.92676,2.81641,2.92676
				C184.31055,582.54272,185.50977,581.21118,185.50977,579.61597z"/>
			<path class="st79" d="M195.38672,575.71069v7.81104h-1.14453l-4.20215-5.875v5.875h-1.14453v-7.81104h1.14453l4.20215,5.875
				v-5.875H195.38672z"/>
			<path class="st79" d="M198.74121,581.25562c0.05469,0.87988,0.71484,1.28711,1.42969,1.28711
				c0.81445,0,1.27637-0.41797,1.27637-0.97949c0-0.71484-0.6709-1.06689-1.58398-1.54004
				c-1.46289-0.8252-2.10156-1.36426-2.10156-2.46436c0-1.15527,1.00098-1.9585,2.2666-1.9585
				c1.35352,0,2.25488,1.01221,2.2998,2.2666h-1.14453c-0.04395-0.71533-0.50586-1.17725-1.15527-1.17725
				c-0.61621,0-1.12207,0.36328-1.12207,0.91309c0,0.7041,0.53906,0.95703,1.36426,1.38623
				c1.41895,0.74805,2.33203,1.4082,2.33203,2.61865c0,1.27588-1.07812,2.02393-2.43164,2.02393
				c-1.54004,0-2.53027-1.08887-2.57422-2.37598H198.74121z"/>
		</g>
	</g>
	<g>
		<path class="st26" d="M284.73535,578.69897c0,2.68457-1.58496,4.36768-3.91699,4.36768c-2.2334,0-3.86133-1.82617-3.86133-4.01562
			c0-2.18896,1.62793-4.01562,3.98242-4.01562c1.36426,0,2.37598,0.64941,3.08008,1.61768l-0.86914,0.6709
			c-0.46191-0.66016-1.17676-1.19922-2.21094-1.19922c-1.65039,0-2.83789,1.29834-2.83789,2.92627
			c0,1.62842,1.12207,2.92676,2.7168,2.92676c1.43066,0,2.43164-0.89111,2.69531-2.18945h-2.96973v-1.08936H284.73535z"/>
		<path class="st26" d="M291.09277,581.13062h-3.23438l-0.66016,1.82617h-1.18848l2.81641-7.81104h1.29883l2.81641,7.81104h-1.18848
			L291.09277,581.13062z M290.70801,580.04126l-1.23242-3.39941l-1.22168,3.39941H290.70801z"/>
		<path class="st26" d="M297.5166,583.06665c-1.90332,0-3.09082-1.05615-3.09082-3.38818v-4.53271h1.15527v4.53271
			c0,1.68311,0.73633,2.29932,1.93555,2.29932s1.93652-0.61621,1.93652-2.29932v-4.53271h1.14453v4.53271
			C300.59766,582.0105,299.40918,583.06665,297.5166,583.06665z"/>
		<path class="st26" d="M310.44238,578.69897c0,2.68457-1.58496,4.36768-3.91699,4.36768c-2.2334,0-3.86133-1.82617-3.86133-4.01562
			c0-2.18896,1.62793-4.01562,3.98242-4.01562c1.36426,0,2.37598,0.64941,3.08008,1.61768l-0.86914,0.6709
			c-0.46191-0.66016-1.17676-1.19922-2.21094-1.19922c-1.65039,0-2.83789,1.29834-2.83789,2.92627
			c0,1.62842,1.12207,2.92676,2.7168,2.92676c1.43066,0,2.43164-0.89111,2.69531-2.18945h-2.96973v-1.08936H310.44238z"/>
		<path class="st26" d="M313.57715,576.23462v2.16748h2.44238v1.08936h-2.44238v2.37598h3.13477v1.08936h-4.29004v-7.81104h4.29004
			v1.08887H313.57715z"/>
		<path class="st26" d="M328.41602,580.74536c0,1.41943-1.06738,2.21143-2.75098,2.21143h-2.50781v-7.81104H325.5
			c1.62891,0,2.47559,0.85791,2.47559,2.06836c0,0.6709-0.31934,1.22119-0.8252,1.57324
			C327.87695,579.17212,328.41602,579.85425,328.41602,580.74536z M324.30078,578.31421H325.5
			c0.84766,0,1.32031-0.31934,1.32031-1.04541c0-0.6709-0.47266-1.03418-1.32031-1.03418h-1.19922V578.31421z M327.26074,580.67944
			c0-0.74805-0.53906-1.27637-1.54004-1.27637h-1.41992v2.46436h1.36426
			C326.72168,581.86743,327.26074,581.43872,327.26074,580.67944z"/>
		<path class="st26" d="M330.31836,579.05103c0-2.21094,1.72754-4.01562,3.96094-4.01562c2.22168,0,3.95996,1.80469,3.95996,4.01562
			c0,2.21143-1.73828,4.01562-3.95996,4.01562C332.0459,583.06665,330.31836,581.26245,330.31836,579.05103z M337.08398,579.05103
			c0-1.59521-1.19922-2.92627-2.80469-2.92627c-1.61816,0-2.81641,1.33105-2.81641,2.92627s1.19824,2.92676,2.81641,2.92676
			C335.88477,581.97778,337.08398,580.64624,337.08398,579.05103z"/>
		<path class="st26" d="M341.16406,580.69067c0.05469,0.87988,0.71484,1.28711,1.42969,1.28711
			c0.81445,0,1.27637-0.41797,1.27637-0.97949c0-0.71484-0.6709-1.06689-1.58398-1.54004
			c-1.46289-0.8252-2.10156-1.36426-2.10156-2.46436c0-1.15527,1.00098-1.9585,2.2666-1.9585
			c1.35352,0,2.25488,1.01221,2.2998,2.2666h-1.14453c-0.04395-0.71533-0.50586-1.17725-1.15527-1.17725
			c-0.61621,0-1.12207,0.36328-1.12207,0.91309c0,0.7041,0.53906,0.95703,1.36426,1.38623
			c1.41895,0.74805,2.33203,1.4082,2.33203,2.61865c0,1.27588-1.07812,2.02393-2.43164,2.02393
			c-1.54004,0-2.53027-1.08887-2.57422-2.37598H341.16406z"/>
		<path class="st26" d="M346.79688,579.05103c0-2.21094,1.72754-4.01562,3.96094-4.01562c2.22168,0,3.95996,1.80469,3.95996,4.01562
			c0,2.21143-1.73828,4.01562-3.95996,4.01562C348.52441,583.06665,346.79688,581.26245,346.79688,579.05103z M353.5625,579.05103
			c0-1.59521-1.19922-2.92627-2.80469-2.92627c-1.61816,0-2.81641,1.33105-2.81641,2.92627s1.19824,2.92676,2.81641,2.92676
			C352.36328,581.97778,353.5625,580.64624,353.5625,579.05103z"/>
		<path class="st26" d="M363.44043,575.14575v7.81104h-1.14453l-4.20215-5.875v5.875h-1.14453v-7.81104h1.14453l4.20215,5.875
			v-5.875H363.44043z"/>
		<path class="st26" d="M366.79395,580.69067c0.05469,0.87988,0.71484,1.28711,1.42969,1.28711
			c0.81445,0,1.27637-0.41797,1.27637-0.97949c0-0.71484-0.6709-1.06689-1.58398-1.54004
			c-1.46289-0.8252-2.10156-1.36426-2.10156-2.46436c0-1.15527,1.00098-1.9585,2.2666-1.9585
			c1.35352,0,2.25488,1.01221,2.2998,2.2666h-1.14453c-0.04395-0.71533-0.50586-1.17725-1.15527-1.17725
			c-0.61621,0-1.12207,0.36328-1.12207,0.91309c0,0.7041,0.53906,0.95703,1.36426,1.38623
			c1.41895,0.74805,2.33203,1.4082,2.33203,2.61865c0,1.27588-1.07812,2.02393-2.43164,2.02393
			c-1.54004,0-2.53027-1.08887-2.57422-2.37598H366.79395z"/>
	</g>
	<g>
		<g>
			<path class="st45" d="M421.7002,575.14575v7.81104h-1.1543v-3.3667h-3.89453v3.3667h-1.15527v-7.81104h1.15527v3.35547h3.89453
				v-3.35547H421.7002z"/>
			<path class="st45" d="M423.89941,575.14575h1.14453v7.81104h-1.14453V575.14575z"/>
			<path class="st45" d="M434.97852,578.69897c0,2.68457-1.58496,4.36768-3.91699,4.36768
				c-2.2334,0-3.86133-1.82617-3.86133-4.01562c0-2.18896,1.62793-4.01562,3.98242-4.01562
				c1.36426,0,2.37598,0.64941,3.08008,1.61768l-0.86914,0.6709c-0.46191-0.66016-1.17676-1.19922-2.21094-1.19922
				c-1.65039,0-2.83789,1.29834-2.83789,2.92627c0,1.62842,1.12207,2.92676,2.7168,2.92676
				c1.43066,0,2.43164-0.89111,2.69531-2.18945h-2.9707v-1.08936H434.97852z"/>
			<path class="st45" d="M444.64746,578.69897c0,2.68457-1.58496,4.36768-3.91699,4.36768
				c-2.2334,0-3.86133-1.82617-3.86133-4.01562c0-2.18896,1.62793-4.01562,3.98242-4.01562
				c1.36426,0,2.37598,0.64941,3.08008,1.61768l-0.86914,0.6709c-0.46191-0.66016-1.17676-1.19922-2.21094-1.19922
				c-1.65039,0-2.83789,1.29834-2.83789,2.92627c0,1.62842,1.12207,2.92676,2.7168,2.92676
				c1.43066,0,2.43164-0.89111,2.69531-2.18945h-2.96973v-1.08936H444.64746z"/>
			<path class="st45" d="M447.66113,580.69067c0.05469,0.87988,0.71484,1.28711,1.42969,1.28711
				c0.81445,0,1.27637-0.41797,1.27637-0.97949c0-0.71484-0.6709-1.06689-1.58398-1.54004
				c-1.46289-0.8252-2.10156-1.36426-2.10156-2.46436c0-1.15527,1.00098-1.9585,2.2666-1.9585
				c1.35352,0,2.25488,1.01221,2.2998,2.2666h-1.14453c-0.04395-0.71533-0.50586-1.17725-1.15527-1.17725
				c-0.61621,0-1.12207,0.36328-1.12207,0.91309c0,0.7041,0.53906,0.95703,1.36426,1.38623
				c1.41895,0.74805,2.33203,1.4082,2.33203,2.61865c0,1.27588-1.07812,2.02393-2.43164,2.02393
				c-1.54004,0-2.53027-1.08887-2.57422-2.37598H447.66113z"/>
			<path class="st45" d="M463.40234,580.74536c0,1.41943-1.06738,2.21143-2.75098,2.21143h-2.50781v-7.81104h2.34277
				c1.62891,0,2.47559,0.85791,2.47559,2.06836c0,0.6709-0.31934,1.22119-0.8252,1.57324
				C462.86328,579.17212,463.40234,579.85425,463.40234,580.74536z M459.28711,578.31421h1.19922
				c0.84766,0,1.32031-0.31934,1.32031-1.04541c0-0.6709-0.47266-1.03418-1.32031-1.03418h-1.19922V578.31421z M462.24707,580.67944
				c0-0.74805-0.53906-1.27637-1.54004-1.27637h-1.41992v2.46436h1.36426
				C461.70801,581.86743,462.24707,581.43872,462.24707,580.67944z"/>
			<path class="st45" d="M465.30469,579.05103c0-2.21094,1.72754-4.01562,3.96094-4.01562
				c2.22168,0,3.95996,1.80469,3.95996,4.01562c0,2.21143-1.73828,4.01562-3.95996,4.01562
				C467.03223,583.06665,465.30469,581.26245,465.30469,579.05103z M472.07031,579.05103c0-1.59521-1.19922-2.92627-2.80469-2.92627
				c-1.61816,0-2.81641,1.33105-2.81641,2.92627s1.19824,2.92676,2.81641,2.92676
				C470.87109,581.97778,472.07031,580.64624,472.07031,579.05103z"/>
			<path class="st45" d="M476.15039,580.69067c0.05469,0.87988,0.71484,1.28711,1.42969,1.28711
				c0.81445,0,1.27637-0.41797,1.27637-0.97949c0-0.71484-0.6709-1.06689-1.58398-1.54004
				c-1.46289-0.8252-2.10156-1.36426-2.10156-2.46436c0-1.15527,1.00098-1.9585,2.2666-1.9585
				c1.35352,0,2.25488,1.01221,2.2998,2.2666h-1.14453c-0.04395-0.71533-0.50586-1.17725-1.15527-1.17725
				c-0.61621,0-1.12207,0.36328-1.12207,0.91309c0,0.7041,0.53906,0.95703,1.36426,1.38623
				c1.41895,0.74805,2.33203,1.4082,2.33203,2.61865c0,1.27588-1.07812,2.02393-2.43164,2.02393
				c-1.54004,0-2.53027-1.08887-2.57422-2.37598H476.15039z"/>
			<path class="st45" d="M481.7832,579.05103c0-2.21094,1.72754-4.01562,3.96094-4.01562c2.22168,0,3.95996,1.80469,3.95996,4.01562
				c0,2.21143-1.73828,4.01562-3.95996,4.01562C483.51074,583.06665,481.7832,581.26245,481.7832,579.05103z M488.54883,579.05103
				c0-1.59521-1.19922-2.92627-2.80469-2.92627c-1.61816,0-2.81641,1.33105-2.81641,2.92627s1.19824,2.92676,2.81641,2.92676
				C487.34961,581.97778,488.54883,580.64624,488.54883,579.05103z"/>
			<path class="st45" d="M498.42578,575.14575v7.81104h-1.14453l-4.20215-5.875v5.875h-1.14453v-7.81104h1.14453l4.20215,5.875
				v-5.875H498.42578z"/>
		</g>
	</g>
	<g>
		<g>
			<path class="st93" d="M301.19824,561.13696c0,1.45215-1.11133,2.25537-2.77246,2.25537h-2.59668v-7.81104h2.40918
				c1.62891,0,2.51953,0.86914,2.51953,2.10107c0,0.63818-0.30762,1.17725-0.78125,1.54053
				C300.66992,559.6189,301.19824,560.27905,301.19824,561.13696z M297.18262,558.66187h1.05566
				c0.72656,0,1.16602-0.27539,1.16602-0.90234c0-0.59424-0.43945-0.90234-1.16602-0.90234h-1.05566V558.66187z
				 M299.84473,561.05981c0-0.65967-0.49512-1.12207-1.38574-1.12207h-1.27637v2.17822h1.24316
				C299.34961,562.11597,299.84473,561.71997,299.84473,561.05981z"/>
			<path class="st93" d="M303.05566,559.48657c0-2.22217,1.74902-4.01514,3.97168-4.01514c2.2334,0,3.98242,1.79297,3.98242,4.01514
				c0,2.22266-1.74902,4.01562-3.98242,4.01562C304.80469,563.5022,303.05566,561.70923,303.05566,559.48657z M309.64551,559.48657
				c0-1.49609-1.10059-2.73926-2.61816-2.73926c-1.51855,0-2.61816,1.24316-2.61816,2.73926
				c0,1.49658,1.09961,2.73975,2.61816,2.73975C308.54492,562.22632,309.64551,560.98315,309.64551,559.48657z"/>
			<path class="st93" d="M314.06738,561.0271c0.04395,0.81396,0.62695,1.19922,1.28711,1.19922
				c0.72656,0,1.12207-0.37402,1.12207-0.83643c0-0.62695-0.59375-0.92383-1.48535-1.4082
				c-1.57227-0.90186-2.1123-1.46289-2.1123-2.5083c0-1.18799,1.02344-2.00195,2.31055-2.00195
				c1.41992,0,2.35449,1.05566,2.3877,2.38721h-1.35352c-0.0332-0.69336-0.43945-1.11133-1.03418-1.11133
				c-0.5166,0-0.95703,0.30811-0.95703,0.78125c0,0.59424,0.45117,0.8252,1.24316,1.24316
				c1.48535,0.80322,2.35449,1.47412,2.35449,2.66211c0,1.32031-1.11133,2.06836-2.47559,2.06836
				c-1.63867,0-2.60742-1.18799-2.64062-2.4751H314.06738z"/>
			<path class="st93" d="M319.53418,559.48657c0-2.22217,1.74902-4.01514,3.97168-4.01514c2.2334,0,3.98242,1.79297,3.98242,4.01514
				c0,2.22266-1.74902,4.01562-3.98242,4.01562C321.2832,563.5022,319.53418,561.70923,319.53418,559.48657z M326.12402,559.48657
				c0-1.49609-1.10059-2.73926-2.61816-2.73926c-1.51855,0-2.61816,1.24316-2.61816,2.73926
				c0,1.49658,1.09961,2.73975,2.61816,2.73975C325.02344,562.22632,326.12402,560.98315,326.12402,559.48657z"/>
			<path class="st93" d="M336.35449,555.5813v7.81104h-1.35254l-3.96094-5.53369v5.53369h-1.35352v-7.81104h1.35352l3.96094,5.53369
				v-5.53369H336.35449z"/>
			<path class="st93" d="M339.81836,561.0271c0.04395,0.81396,0.62695,1.19922,1.28711,1.19922
				c0.72656,0,1.12207-0.37402,1.12207-0.83643c0-0.62695-0.59375-0.92383-1.48535-1.4082
				c-1.57324-0.90186-2.1123-1.46289-2.1123-2.5083c0-1.18799,1.02344-2.00195,2.31055-2.00195
				c1.41992,0,2.35449,1.05566,2.3877,2.38721h-1.35352c-0.0332-0.69336-0.43945-1.11133-1.03418-1.11133
				c-0.5166,0-0.95703,0.30811-0.95703,0.78125c0,0.59424,0.45117,0.8252,1.24316,1.24316
				c1.48535,0.80322,2.35449,1.47412,2.35449,2.66211c0,1.32031-1.11133,2.06836-2.47559,2.06836
				c-1.63867,0-2.60742-1.18799-2.63965-2.4751H339.81836z"/>
			<path class="st93" d="M352.7334,556.85718c-0.56152,0-1.32031,0.24219-1.32031,1.21045v3.71826
				c0,0.95752,0.75879,1.21045,1.32031,1.21045v1.27588c-1.67285,0-2.67383-0.73682-2.67383-2.48633v-3.71826
				c0-1.74951,1.00098-2.48633,2.67383-2.48633V556.85718z"/>
			<path class="st93" d="M356.83496,556.85718v1.96973h2.59668v1.27588h-2.59668v3.28955h-1.35254v-7.81104h4.37793v1.27588
				H356.83496z"/>
			<path class="st93" d="M361.38965,559.48657c0-2.22217,1.74902-4.01514,3.97168-4.01514c2.2334,0,3.98242,1.79297,3.98242,4.01514
				c0,2.22266-1.74902,4.01562-3.98242,4.01562C363.13867,563.5022,361.38965,561.70923,361.38965,559.48657z M367.97949,559.48657
				c0-1.49609-1.10059-2.73926-2.61816-2.73926c-1.51855,0-2.61816,1.24316-2.61816,2.73926
				c0,1.49658,1.09961,2.73975,2.61816,2.73975C366.87891,562.22632,367.97949,560.98315,367.97949,559.48657z"/>
			<path class="st93" d="M374.19336,560.93921h-1.375v2.45312h-1.35352v-7.81104h2.9375c1.41992,0,2.73926,1.01221,2.73926,2.68408
				c0,1.18848-0.6709,2.04639-1.57324,2.43164l1.65039,2.69531h-1.5293L374.19336,560.93921z M372.81836,559.66284h1.58398
				c0.75977,0,1.38672-0.52832,1.38672-1.39746c0-0.87988-0.62695-1.4082-1.38672-1.4082h-1.58398V559.66284z"/>
			<path class="st93" d="M383.02637,556.74731c-1.47363,0-2.7168,1.1333-2.7168,2.73926c0,1.60645,1.24316,2.73975,2.7168,2.73975
				c1.12207,0,1.84863-0.56104,2.12305-0.8584v1.36426c-0.34082,0.29688-1.09961,0.77002-2.28809,0.77002
				c-2.17773,0-3.90527-1.74902-3.90527-4.01562c0-2.26611,1.72754-4.01514,3.90527-4.01514
				c1.18848,0,1.94727,0.47266,2.28809,0.77002v1.36426C384.86426,557.29761,384.14844,556.74731,383.02637,556.74731z"/>
			<path class="st93" d="M388.64746,556.85718v1.91455h2.37598v1.27588h-2.37598v2.06836h3.02539v1.27637h-4.37891v-7.81104h4.37891
				v1.27588H388.64746z"/>
			<path class="st93" d="M402.14453,556.74731c-1.47363,0-2.7168,1.1333-2.7168,2.73926c0,1.60645,1.24316,2.73975,2.7168,2.73975
				c1.12207,0,1.84863-0.56104,2.12305-0.8584v1.36426c-0.34082,0.29688-1.09961,0.77002-2.28809,0.77002
				c-2.17773,0-3.90527-1.74902-3.90527-4.01562c0-2.26611,1.72754-4.01514,3.90527-4.01514
				c1.18848,0,1.94727,0.47266,2.28809,0.77002v1.36426C403.98242,557.29761,403.2666,556.74731,402.14453,556.74731z"/>
			<path class="st93" d="M411.01172,561.67603h-3.125l-0.61621,1.71631h-1.4082l2.81641-7.81104h1.54004l2.81641,7.81104h-1.4082
				L411.01172,561.67603z M410.54883,560.38892l-1.09961-3.04736l-1.10059,3.04736H410.54883z"/>
			<path class="st93" d="M417.54395,560.93921h-1.375v2.45312h-1.35352v-7.81104h2.9375c1.41992,0,2.73926,1.01221,2.73926,2.68408
				c0,1.18848-0.6709,2.04639-1.57324,2.43164l1.65039,2.69531h-1.5293L417.54395,560.93921z M416.16895,559.66284h1.58398
				c0.75977,0,1.38672-0.52832,1.38672-1.39746c0-0.87988-0.62695-1.4082-1.38672-1.4082h-1.58398V559.66284z"/>
			<path class="st93" d="M425.47559,560.93921h-1.375v2.45312h-1.35352v-7.81104h2.9375c1.41992,0,2.73926,1.01221,2.73926,2.68408
				c0,1.18848-0.6709,2.04639-1.57324,2.43164l1.65039,2.69531h-1.5293L425.47559,560.93921z M424.10059,559.66284h1.58398
				c0.75977,0,1.38672-0.52832,1.38672-1.39746c0-0.87988-0.62695-1.4082-1.38672-1.4082h-1.58398V559.66284z"/>
			<path class="st93" d="M430.75391,555.5813h1.35352v7.81104h-1.35352V555.5813z"/>
			<path class="st93" d="M435.57324,556.85718v1.91455h2.37598v1.27588h-2.37598v2.06836h3.02539v1.27637h-4.37891v-7.81104h4.37891
				v1.27588H435.57324z"/>
			<path class="st93" d="M443.4375,560.93921h-1.375v2.45312h-1.35352v-7.81104h2.9375c1.41992,0,2.73926,1.01221,2.73926,2.68408
				c0,1.18848-0.6709,2.04639-1.57324,2.43164l1.65039,2.69531h-1.5293L443.4375,560.93921z M442.0625,559.66284h1.58398
				c0.75977,0,1.38672-0.52832,1.38672-1.39746c0-0.87988-0.62695-1.4082-1.38672-1.4082h-1.58398V559.66284z"/>
			<path class="st93" d="M449.70605,561.0271c0.04395,0.81396,0.62695,1.19922,1.28711,1.19922
				c0.72656,0,1.12207-0.37402,1.12207-0.83643c0-0.62695-0.59375-0.92383-1.48535-1.4082
				c-1.57227-0.90186-2.1123-1.46289-2.1123-2.5083c0-1.18799,1.02344-2.00195,2.31055-2.00195
				c1.41992,0,2.35449,1.05566,2.3877,2.38721h-1.35352c-0.0332-0.69336-0.43945-1.11133-1.03418-1.11133
				c-0.5166,0-0.95703,0.30811-0.95703,0.78125c0,0.59424,0.45117,0.8252,1.24316,1.24316
				c1.48535,0.80322,2.35449,1.47412,2.35449,2.66211c0,1.32031-1.11133,2.06836-2.47559,2.06836
				c-1.63867,0-2.60742-1.18799-2.64062-2.4751H449.70605z"/>
			<path class="st93" d="M458.78223,558.06763v3.71826c0,1.74951-1.00098,2.48633-2.67285,2.48633v-1.27588
				c0.56055,0,1.31934-0.25293,1.31934-1.21045v-3.71826c0-0.96826-0.75879-1.21045-1.31934-1.21045v-1.27588
				C457.78125,555.5813,458.78223,556.31812,458.78223,558.06763z"/>
		</g>
	</g>
</g>
</svg>
